<svg fill="none" height="122" viewBox="0 0 568 122" width="568" xmlns="http://www.w3.org/2000/svg"><g fill="#071412"><path clip-rule="evenodd" d="m180.073 49.7442-6.82-20.6465h-3.375l-6.888 20.6465-6.887-20.6465h-4.891l9.988 29.9374h3.375l6.888-20.6465 6.888 20.6465h3.375l10.125-29.9374h-4.822z" fill-rule="evenodd"/><path d="m215.201 29.0977h-4.753v29.9374h4.753z"/><g clip-rule="evenodd" fill-rule="evenodd"><path d="m240.893 29.0977h-4.753v29.9374h18.46v-4.0605h-13.707z"/><path d="m278.019 29.0977h-4.753v29.9374h18.529v-4.0605h-13.776z"/><path d="m335.602 33.0894c-1.446-1.3764-3.168-2.4776-5.166-3.2346-1.997-.7571-4.201-1.17-6.543-1.17s-4.409.4129-6.406 1.17c-1.998.757-3.72 1.8582-5.166 3.2346-1.447 1.3764-2.617 3.0281-3.444 4.8863s-1.24 3.9229-1.24 6.0563c0 2.1335.413 4.267 1.24 6.1251.827 1.8582 1.997 3.5099 3.444 4.8864 1.446 1.3764 3.237 2.4776 5.166 3.2346 1.997.757 4.133 1.17 6.406 1.17s4.408-.413 6.337-1.17c1.997-.757 3.719-1.8582 5.166-3.3034 1.446-1.3765 2.617-3.0282 3.512-4.8864.827-1.8582 1.24-3.9228 1.24-6.1251s-.413-4.1981-1.24-6.0563c-.826-1.8582-1.997-3.5099-3.444-4.8863h.138zm-.069 10.8738c0 1.6517-.275 3.2346-.895 4.611-.62 1.3765-1.447 2.5464-2.48 3.5788-1.033 1.0323-2.273 1.7893-3.65 2.3399-2.756 1.1011-6.268 1.1011-9.024 0-1.377-.5506-2.686-1.3764-3.719-2.3399s-1.86-2.2023-2.48-3.5788c-.62-1.3764-.895-2.8905-.895-4.5422s.275-3.0969.895-4.4734c.551-1.3764 1.378-2.5464 2.411-3.5787 1.033-.9635 2.273-1.7894 3.651-2.3399 1.377-.5506 2.961-.8259 4.615-.8259 1.653 0 3.237.2753 4.683.8259 1.378.5505 2.687 1.3764 3.72 2.3399s1.86 2.2023 2.411 3.5099c.551 1.3764.895 2.8217.895 4.4734z"/><path d="m390.912 29.0977h-1.722l-6.956 20.6465-6.82-20.6465h-3.375l-6.888 20.6465-6.887-20.6465h-4.822l9.919 29.9374h3.375l6.888-20.6465 6.888 20.6465h3.375l8.747-25.8769h20.595v25.8769h4.753v-25.8769h9.436l1.86-4.0605h-35.266z"/><path d="m457.037 46.2343c1.308-.4129 2.479-1.0323 3.444-1.7893 1.033-.7571 1.79-1.7206 2.41-2.8217.62-1.1012.896-2.34.896-3.7164s-.276-2.5464-.896-3.6475c-.551-1.1012-1.377-2.0647-2.41-2.8217-.965-.7571-2.205-1.3764-3.513-1.7894-1.309-.4129-2.756-.6194-4.271-.6194h-9.918v29.9374h4.752v-12.2502l12.398 12.2502h6.337l-12.398-12.1814c1.102 0 2.135-.2753 3.1-.5506zm1.446-10.1856c.344.5506.482 1.17.482 1.8582s-.138 1.5829-.482 2.2711c-.344.6194-.758 1.17-1.378 1.5829-.62.413-1.377.7571-2.204 1.0323-.826.2065-1.791.3442-2.755.3442h-4.546v-9.9104h4.822c.964 0 1.928.1377 2.686.3442.826.2064 1.515.5505 2.066 1.0323.551.4129.965.8947 1.309 1.5141z"/><path d="m488.79 45.8214h13.294v-4.0605h-13.294v-8.6027h14.189v-4.0605h-18.942v29.9374h19.769v-4.0605h-15.016z"/><path d="m528.327 45.8214h13.224v-4.0605h-13.224v-8.6027h14.12v-4.0605h-18.873v29.9374h19.699v-4.0605h-14.946z"/><path d="m567.519 32.3323c-.344-.6882-.758-1.3076-1.309-1.8582-.551-.5505-1.171-.9635-1.928-1.2387-1.516-.6194-3.238-.6194-4.684 0-.758.2752-1.378.6882-1.929 1.2387-.551.5506-.964 1.1012-1.308 1.8582-.345.6882-.483 1.4453-.483 2.2023 0 .7571.138 1.5141.483 2.2023.344.6882.757 1.3076 1.308 1.8582s1.171.9635 1.929 1.2388 1.515.4817 2.342.4817c.826 0 1.584-.1376 2.342-.4817.757-.2753 1.377-.6882 1.928-1.2388s.965-1.1012 1.309-1.8582c.344-.6882.482-1.4452.482-2.2023 0-.757-.138-1.5141-.482-2.2023zm-1.102 4.0605c-.276.5506-.62 1.0323-1.033 1.4453l-2.48-2.7529c.138 0 .276 0 .344-.1377.276 0 .483-.2752.689-.4129.207-.2064.345-.4129.482-.6194.138-.2753.138-.5505.138-.8258s0-.5506-.138-.8259c-.137-.2753-.275-.4817-.482-.6882-.206-.2065-.482-.3441-.757-.4129-.276-.1377-.62-.1377-.965-.1377h-2.479v6.8134h1.446v-2.6153l2.273 2.5464h1.791c-.413.3441-.895.6883-1.446.8947-1.171.4818-2.549.4818-3.72 0-.551-.2064-1.102-.5506-1.515-.9635-.414-.4129-.758-.8947-1.034-1.4452-.275-.5506-.413-1.17-.413-1.7894s.138-1.2388.413-1.7894c.276-.5505.62-1.0323 1.034-1.4452.413-.4129.964-.7571 1.515-.9635.551-.2065 1.171-.3441 1.86-.3441s1.309.1376 1.86.3441c.551.2064 1.102.5506 1.515.9635s.758.8947 1.033 1.4452c.276.5506.344 1.17.344 1.7894s-.137 1.2388-.344 1.7894v.1376zm-3.651-2.6152c-.206.1376-.413.2753-.757.2753h-.896v-1.6517h1.378c.138 0 .206.1376.275.2064 0 0 .138.1377.207.2753v.2753c0 .2753 0 .4817-.276.6882v-.1376z"/></g><path d="m164.575 89.1102c0-.8259-.276-1.3765-.758-1.7894s-1.102-.5506-1.929-.5506c-.826 0-1.171.1377-1.722.3441-.551.2065-.964.5506-1.377.8947l-1.102-1.3764c.551-.4818 1.171-.8947 1.928-1.17.758-.2753 1.585-.4129 2.48-.4129s1.447.1376 1.998.3441 1.033.5506 1.377.8947c.345.4129.62.8258.827 1.3076.206.4817.275 1.1011.275 1.6517v5.8498c0 .413 0 .7571.138.9635h-1.929c-.137-.4817-.206-1.0323-.206-1.514-.414.5505-.896 1.0323-1.516 1.3076-.62.3441-1.308.4817-2.135.4817-.826 0-.895 0-1.309-.1376-.482-.1377-.895-.2753-1.239-.5506-.414-.2753-.689-.6194-.965-1.0323-.275-.413-.344-.9635-.344-1.5829s.206-1.4453.689-1.927c.413-.4818 1.033-.8259 1.722-1.1012.688-.2753 1.515-.4129 2.41-.4817.896-.0688 1.791-.1377 2.687-.1377zm-.551 1.8581h-1.653c-.551 0-1.103.1377-1.516.2753-.482.1377-.826.3441-1.171.6194-.275.2753-.482.6194-.482 1.1012 0 .4817 0 .5505.207.8258.206.2753.275.413.482.5506s.413.2065.689.2753c.275 0 .551.0688.826.0688 1.033 0 1.791-.2753 2.273-.8947.551-.6194.827-1.3764.827-2.2711v-.5506h-.551z"/><path d="m181.381 96.13h-2.273v-14.1084h-5.166v-1.9958h12.536v1.9958h-5.166v14.1084z"/><path d="m191.713 94.1342h8.403v1.9958h-10.676v-16.1042h10.332v1.9958h-8.059v4.8175h7.577v1.927h-7.577z"/><path d="m206.247 94.1342h7.163v1.9958h-9.436v-16.1042h2.273z"/><path d="m222.02 96.5429c-1.033 0-1.997-.2064-2.755-.5505s-1.447-.8259-1.929-1.4453-.895-1.2388-1.171-2.0646c-.275-.7571-.344-1.5829-.344-2.34v-10.1167h2.273v9.9791c0 .5506 0 1.1011.207 1.6517.137.5506.344 1.0323.688 1.4453.345.4129.689.757 1.24 1.0323.482.2753 1.171.4129 1.929.4129s1.377-.1376 1.86-.4129c.482-.2753.895-.6194 1.239-1.0323.345-.413.551-.8947.689-1.4453s.207-1.1011.207-1.6517v-9.9791h2.273v10.1167c0 .8259-.138 1.5829-.345 2.34-.275.757-.619 1.4452-1.17 2.0646-.483.6194-1.171 1.0323-1.929 1.4453-.758.3441-1.722.5505-2.755.5505z"/><path d="m240.962 82.985c-.344-.4129-.758-.8258-1.309-1.1011s-1.171-.4129-1.86-.4129c-.688 0-.757 0-1.102.1376-.344.1377-.688.2753-1.033.4818-.275.2064-.551.4817-.757.8258-.207.3441-.276.6882-.276 1.17 0 .4817.069.8258.276 1.1011.206.2753.413.5506.688.7571.276.2064.62.4129 1.034.5505.413.1377.826.2753 1.308.413.551.1376 1.102.3441 1.653.5505.551.2065 1.102.4818 1.516.8259.413.3441.826.757 1.102 1.3076.275.5506.413 1.17.413 1.9958 0 .8259-.138 1.5829-.482 2.2023-.345.6194-.758 1.1012-1.24 1.5141s-1.102.6882-1.791.8947c-.689.2064-1.377.2753-2.066.2753-1.033 0-1.998-.2065-2.962-.6194-.964-.413-1.722-.9635-2.342-1.7206l1.722-1.4452c.344.5506.896 1.0323 1.515 1.3764.62.3441 1.309.5506 2.067.5506.757 0 .757 0 1.102-.1377.344-.1376.758-.2752 1.033-.4817.344-.2065.551-.4818.758-.8259.206-.3441.275-.757.275-1.2388 0-.4817-.069-.8946-.275-1.2387-.207-.3441-.482-.6194-.827-.8259-.344-.2065-.757-.4129-1.24-.5506-.482-.1376-.964-.3441-1.446-.4817-.482-.1377-1.033-.3441-1.515-.5506-.483-.2065-.965-.4817-1.309-.8259-.413-.3441-.689-.757-.964-1.2387-.276-.4818-.345-1.1012-.345-1.8582 0-.7571.138-1.5141.482-2.0647.345-.5505.758-1.0323 1.24-1.4452.551-.413 1.102-.6882 1.791-.8259.689-.2065 1.309-.2753 1.997-.2753.689 0 1.791.1377 2.618.4818.826.3441 1.446.757 1.997 1.3076l-1.584 1.5141h.138z"/><path d="m253.222 80.0257h5.511c1.033 0 2.066.1377 3.099.4818 1.034.2753 1.929.757 2.824 1.4452.827.6194 1.516 1.5141 1.998 2.4776.482 1.0323.758 2.2023.758 3.6476 0 1.4452-.276 2.5463-.758 3.5787-.482 1.0323-1.171 1.8582-1.998 2.4776-.826.6193-1.79 1.1699-2.824 1.4452-1.033.3441-2.066.4818-3.099.4818h-5.511v-16.1043zm2.273 14.1085h2.825c.964 0 1.859-.1377 2.686-.413.826-.2753 1.515-.6882 2.135-1.1699.62-.4818 1.033-1.17 1.378-1.9271.344-.757.482-1.5828.482-2.5463s-.138-1.8582-.482-2.6153c-.345-.757-.827-1.3764-1.378-1.927-.62-.4817-1.309-.8946-2.135-1.1699-.827-.2753-1.722-.413-2.686-.413h-2.825z"/><path d="m273.748 81.471c0 .4129-.137.6882-.413.9635-.275.2753-.62.4129-1.033.4129s-.689-.1376-.964-.4129c-.276-.2753-.414-.6194-.414-.9635s.138-.6882.414-.9635c.275-.2753.62-.413.964-.413s.758.1377 1.033.413c.276.2753.413.6194.413.9635zm-.344 14.659h-2.135v-10.7362h2.135z"/><path d="m278.846 97.9193c.482.5506 1.033.9636 1.79 1.2388.758.2753 1.447.4818 2.205.4818.757 0 1.308-.0688 1.79-.2753.483-.2065.896-.4818 1.171-.8259.276-.3441.483-.757.62-1.2387.138-.4818.207-1.0324.207-1.5829v-1.3765c-.413.6194-.964 1.1012-1.584 1.3765-.689.3441-1.378.4817-2.204.4817-.827 0-1.585-.1376-2.273-.4129-.689-.2753-1.24-.6882-1.722-1.17-.483-.4817-.827-1.1011-1.102-1.7893-.276-.6883-.414-1.3765-.414-2.2023 0-.8259.138-1.5141.414-2.2023.275-.6882.619-1.3076 1.102-1.7894.482-.4817 1.033-.8947 1.722-1.2388.688-.2753 1.377-.4129 2.204-.4129.826 0 1.515.1376 2.204.4817.689.3442 1.24.8259 1.653 1.5141v-1.7205h2.066v10.2544c0 .757-.069 1.5141-.275 2.2711-.207.6882-.551 1.3764-1.033 1.927-.483.5503-1.102.9633-1.86 1.3073s-1.722.482-2.824.482-1.86-.138-2.824-.482c-.965-.344-1.791-.826-2.411-1.4449zm.62-7.295c0 .4817.068.9635.206 1.4452.138.4818.413.8259.689 1.17.344.3441.689.6194 1.102.8258.413.2065.964.3441 1.515.3441s1.034-.0688 1.516-.2752c.482-.2065.826-.4818 1.171-.8259.344-.3441.551-.757.757-1.17.207-.4817.276-.9635.276-1.514 0-.5506-.069-1.0324-.276-1.4453-.206-.4817-.413-.8259-.757-1.17-.345-.3441-.689-.6194-1.171-.8258-.482-.2065-.965-.2753-1.516-.2753s-1.033 0-1.515.2753-.827.4817-1.102.8258c-.344.3441-.551.7571-.689 1.2388-.138.4818-.206.9635-.206 1.4453z"/><path d="m295.721 81.471c0 .4129-.138.6882-.413.9635-.276.2753-.62.4129-1.033.4129-.414 0-.689-.1376-.965-.4129-.275-.2753-.413-.6194-.413-.9635s.138-.6882.413-.9635c.276-.2753.62-.413.965-.413.344 0 .757.1377 1.033.413.275.2753.413.6194.413.9635zm-.344 14.659h-2.136v-10.7362h2.136z"/><path d="m305.157 87.1144h-2.892v5.5745c0 .6194.137 1.1011.344 1.3764.275.2753.62.413 1.171.413h.62c.206 0 .413-.1377.62-.2065v1.7205c-.207.0689-.482.1377-.758.2065-.344 0-.62.0688-.964.0688-1.033 0-1.791-.2753-2.342-.8258-.551-.5506-.827-1.3765-.827-2.5464v-5.8499h-2.066v-1.7205h2.066v-3.097h2.136v3.097h2.892v1.7205z"/><path d="m314.938 89.1102c0-.8259-.275-1.3765-.757-1.7894s-1.102-.5506-1.929-.5506c-.826 0-1.171.1377-1.722.3441-.551.2065-.964.5506-1.378.8947l-1.102-1.3764c.551-.4818 1.171-.8947 1.929-1.17s1.584-.4129 2.48-.4129c.895 0 1.446.1376 1.997.3441s1.033.5506 1.378.8947c.344.4129.62.8258.826 1.3076.207.4817.276 1.1011.276 1.6517v5.8498c0 .413 0 .7571.138.9635h-1.929c-.138-.4817-.207-1.0323-.207-1.514-.413.5505-.895 1.0323-1.515 1.3076-.62.3441-1.309.4817-2.135.4817-.827 0-.896 0-1.309-.1376-.482-.1377-.895-.2753-1.24-.5506-.413-.2753-.689-.6194-.964-1.0323-.276-.413-.344-.9635-.344-1.5829s.206-1.4453.688-1.927c.414-.4818 1.033-.8259 1.722-1.1012s1.516-.4129 2.411-.4817 1.791-.1377 2.686-.1377zm-.551 1.8581h-1.653c-.551 0-1.102.1377-1.515.2753-.482.1377-.827.3441-1.171.6194-.276.2753-.482.6194-.482 1.1012 0 .4817 0 .5505.206.8258.207.2753.276.413.483.5506.206.1376.413.2065.688.2753.276 0 .551.0688.827.0688 1.033 0 1.791-.2753 2.273-.8947.551-.6194.826-1.3764.826-2.2711v-.5506h-.551z"/><path d="m323.548 96.13h-2.135v-17.1366h2.135z"/><path d="m348.552 93.5836c-.62.8946-1.447 1.5829-2.48 2.1334-1.033.5506-2.204.8259-3.651.8259-1.446 0-2.342-.2065-3.375-.6194s-1.928-1.0323-2.686-1.7205c-.758-.7571-1.309-1.6518-1.791-2.6841-.413-1.0323-.62-2.2023-.62-3.4411 0-1.2387.207-2.4087.62-3.441.413-1.0324 1.033-1.927 1.791-2.6841.758-.757 1.653-1.3076 2.686-1.7205s2.204-.6194 3.375-.6194 1.102 0 1.653.1376c.551.1377 1.102.2753 1.585.4818.482.2065.964.4817 1.377.757.413.3441.758.6882 1.102 1.1012l-1.791 1.3764c-.413-.5506-.964-.9635-1.653-1.3764-.689-.3441-1.515-.5506-2.342-.5506-.826 0-1.79.1376-2.548.4817-.758.3442-1.378.8259-1.929 1.3765-.551.6194-.964 1.3076-1.24 2.0646-.275.7571-.413 1.5829-.413 2.4776s.138 1.7894.413 2.5464c.276.757.689 1.4453 1.171 2.0646.551.5506 1.171 1.0324 1.929 1.3765s1.584.4817 2.48.4817c.895 0 1.722-.2064 2.479-.5505.758-.3441 1.378-.8947 1.86-1.5829l1.791 1.2388h.207z"/><path d="m362.258 90.693c0 .8259-.137 1.5829-.413 2.2712-.275.6882-.689 1.3076-1.24 1.7893-.551.4818-1.171.8947-1.859 1.17-.689.2753-1.447.4129-2.273.4129-.827 0-1.585-.1376-2.273-.4129-.689-.2753-1.309-.6882-1.86-1.17-.482-.4817-.896-1.1011-1.24-1.7893-.275-.6883-.413-1.4453-.413-2.2712 0-.8258.138-1.5828.413-2.2711.276-.6882.689-1.3076 1.24-1.7893.482-.4818 1.102-.8947 1.86-1.17.688-.2753 1.446-.4129 2.273-.4129.826 0 1.584.1376 2.273.4129.688.2753 1.308.6882 1.859 1.17.551.4817.965 1.1011 1.24 1.7893.276.6883.413 1.4453.413 2.2711zm-2.273 0c0-.4817 0-1.0323-.206-1.4452-.138-.4818-.413-.8947-.689-1.2388-.275-.3441-.689-.6194-1.102-.8258-.482-.2065-.964-.3442-1.515-.3442s-1.102.1377-1.516.3442c-.482.2064-.826.4817-1.102.8258-.275.3441-.551.757-.689 1.2388-.137.4817-.206.9635-.206 1.4452 0 .4818 0 1.0324.206 1.4453.138.4818.414.8947.689 1.2388.276.3441.689.6194 1.102.8259.482.2064.965.3441 1.516.3441s1.102-.1377 1.515-.3441c.482-.2065.827-.4818 1.102-.8259.276-.3441.551-.757.689-1.2388.138-.4817.206-.9635.206-1.4453z"/><path d="m369.422 85.6691c.62-.413 1.309-.6194 2.135-.6194.827 0 1.378.1376 1.998.4817.551.3441 1.033.8947 1.377 1.6518.345-.6883.896-1.2388 1.516-1.5829.62-.3442 1.377-.5506 2.135-.5506s1.309.1376 1.791.3441.895.5506 1.24.9635c.344.4129.551.8259.757 1.3764.138.5506.207 1.1012.207 1.7206v6.6756h-2.135v-5.9874c0-.413 0-.8259-.138-1.2388 0-.4129-.207-.757-.413-1.0323-.207-.2753-.414-.5506-.758-.7571-.276-.2064-.689-.2753-1.171-.2753s-.895 0-1.24.2753c-.344.2753-.62.4818-.826.8259-.207.3441-.414.6882-.482 1.1011 0 .413-.138.8259-.138 1.2388v5.781h-2.136v-6.4004c0-.4129 0-.8258-.137-1.1699 0-.3441-.207-.6194-.414-.8947-.206-.2753-.413-.413-.688-.6194-.276-.1377-.62-.2065-1.102-.2065-.758 0-1.447.3441-1.998.9635s-.758 1.5141-.758 2.5464v5.7122h-2.135v-10.7362h1.998v1.7206c.275-.5506.688-1.0323 1.308-1.4453z"/><path d="m389.19 101.567h-2.135v-16.242h2.066v1.6517c.345-.5506.827-1.0323 1.516-1.4452.689-.413 1.446-.5506 2.342-.5506.895 0 1.515.1376 2.204.4129s1.24.6882 1.722 1.17c.482.4817.826 1.1011 1.102 1.7894.275.6882.413 1.4452.413 2.2022 0 .7571-.138 1.5141-.413 2.2023-.276.6882-.62 1.3076-1.102 1.7894-.482.4817-1.033.8947-1.722 1.2388-.689.2753-1.447.4129-2.273.4129-.827 0-1.516-.1376-2.204-.4817-.689-.3441-1.24-.8259-1.585-1.3765v7.2264zm7.095-10.8739c0-.4818 0-.9635-.207-1.4453-.137-.4817-.413-.8947-.688-1.2388-.276-.3441-.689-.6194-1.103-.8946-.413-.2065-.964-.3441-1.584-.3441s-1.033.1376-1.515.3441c-.413.2064-.827.4817-1.171.8946-.345.3441-.551.7571-.758 1.2388-.206.4818-.275.9635-.275 1.4453 0 .4817 0 1.0323.275 1.4452.207.4818.413.8947.758 1.2388.344.3441.689.6194 1.171.8259.413.2065.964.3441 1.515.3441s1.102-.1376 1.584-.3441c.414-.2065.827-.4818 1.103-.8947.275-.3441.551-.757.688-1.2388.138-.4817.207-.9635.207-1.4452z"/><path d="m409.028 89.1102c0-.8259-.276-1.3765-.758-1.7894s-1.102-.5506-1.929-.5506c-.826 0-1.171.1377-1.722.3441-.551.2065-.964.5506-1.377.8947l-1.102-1.3764c.551-.4818 1.171-.8947 1.928-1.17.758-.2753 1.584-.4129 2.48-.4129.895 0 1.446.1376 1.997.3441s1.034.5506 1.378.8947c.344.4129.62.8258.827 1.3076.206.4817.275 1.1011.275 1.6517v5.8498c0 .413 0 .7571.138.9635h-1.929c-.138-.4817-.206-1.0323-.206-1.514-.414.5505-.896 1.0323-1.516 1.3076-.62.3441-1.308.4817-2.135.4817s-.895 0-1.309-.1376c-.482-.1377-.895-.2753-1.24-.5506-.413-.2753-.688-.6194-.964-1.0323-.275-.413-.344-.9635-.344-1.5829s.206-1.4453.689-1.927c.413-.4818 1.033-.8259 1.722-1.1012.688-.2753 1.515-.4129 2.41-.4817.896-.0688 1.791-.1377 2.687-.1377zm-.551 1.8581h-1.654c-.551 0-1.102.1377-1.515.2753-.482.1377-.826.3441-1.171.6194-.275.2753-.482.6194-.482 1.1012 0 .4817 0 .5505.207.8258.206.2753.275.413.482.5506.206.1376.413.2065.689.2753.275 0 .551.0688.826.0688 1.033 0 1.791-.2753 2.273-.8947.551-.6194.827-1.3764.827-2.2711v-.5506h-.551z"/><path d="m417.362 85.325v1.7205c.138-.2752.344-.5505.551-.8258s.482-.4818.827-.6882c.275-.2065.619-.3441 1.033-.413.344-.1376.757-.1376 1.102-.1376.689 0 1.309.1376 1.791.3441s.895.5506 1.24.9635c.344.4129.551.8259.757 1.3764.138.5506.207 1.1012.207 1.7206v6.6757h-2.135v-7.2263c0-.4129-.207-.757-.345-1.0323-.206-.2753-.413-.5506-.757-.7571-.345-.2064-.758-.2752-1.24-.2752-.827 0-1.516.3441-2.067.9635s-.826 1.514-.826 2.5463v5.7122h-2.135v-10.7361h2.066z"/><path d="m433.618 93.7901 2.961-8.4651h2.273l-5.234 13.2826c-.207.4817-.414.8258-.62 1.2388-.207.3436-.483.6886-.758.8946-.276.275-.62.413-1.033.551-.414.137-.827.206-1.378.206h-.689c-.206 0-.482 0-.688-.138l.206-1.8577c.345.1376.689.2064 1.102.2064.414 0 .965-.1376 1.24-.4817.276-.3441.551-.7571.758-1.3076l.689-1.7894-4.615-10.7362h2.41l3.376 8.4651z"/><path clip-rule="evenodd" d="m116.71 36.0143c-9.836-21.8783-31.691-36.0143-55.6954-36.0143-6.3094 0-12.4879.977266-18.4528 2.88362l5.0695 10.70868c4.3463-1.2388 8.8303-1.872 13.3833-1.872 9.1678 0 17.943 2.5808 25.4922 7.1437l-13.5692 48.2164-14.6369-30.8527-12.8942 30.9972-9.4227-22.0848-5.8341 12.4154 14.506 34.1286 13.7001-30.309 17.2474 36.8952 23.0746-69.0487c2.9342 3.4618 5.4212 7.3502 7.3352 11.6034 5.394 12.0093 5.793 25.3951 1.116 37.7004-3.581 9.4217-9.8219 17.3362-17.9359 22.9516l5.0695 10.709c10.8484-6.999 19.1554-17.2191 23.8254-29.5038 5.786-15.2302 5.297-31.8024-1.378-46.661z" fill-rule="evenodd"/><path clip-rule="evenodd" d="m79.55 106.673c-24.4246 9.897-52.5756-1.252-63.4655-25.4704-5.3932-12.0094-5.7858-25.3952-1.1158-37.7005 4.2774-11.2523 12.3432-20.3505 22.8748-25.9526l-4.9799-10.63294c-13.3006 6.90974-23.48102 18.30654-28.85361 32.42184-5.78587 15.2302-5.29682 31.7956 1.37759 46.661 10.15282 22.5876 32.44222 36.0006 55.75092 35.9936 7.8178 0 15.7459-1.528 23.3708-4.707l-4.9662-10.619z" fill-rule="evenodd"/></g></svg>