<svg width="45" height="45" viewBox="0 0 45 45" fill="none" xmlns="http://www.w3.org/2000/svg">
<g clip-path="url(#clip0_1658_616)">
<path fill-rule="evenodd" clip-rule="evenodd" d="M43.0131 13.284C39.3891 5.21414 31.3335 0 22.4877 0C20.1628 0 17.886 0.360137 15.6866 1.06369L17.5544 5.01406C19.1563 4.5582 20.8078 4.32267 22.4877 4.32267C25.8671 4.32267 29.0993 5.27442 31.8829 6.95658L26.8823 24.7416L21.4867 13.3605L16.7357 24.7932L13.2625 16.6468L11.1113 21.2263L16.4592 33.8154L21.508 22.6354L27.8639 36.2436L36.3681 10.7737C37.449 12.0502 38.3669 13.4846 39.0722 15.0548C41.0604 19.4839 41.2072 24.4224 39.4833 28.9614C38.1629 32.4361 35.8633 35.3557 32.8716 37.4284L34.7393 41.3797C38.737 38.7985 41.799 35.028 43.5213 30.4961C45.6549 24.8783 45.4741 18.7656 43.0131 13.284Z" fill="white"/>
<path fill-rule="evenodd" clip-rule="evenodd" d="M29.3168 39.3468C20.3165 42.9967 9.93957 38.8858 5.92773 29.9523C3.93952 25.5223 3.79421 20.5847 5.51713 16.0462C7.0937 11.8963 10.0656 8.53858 13.9463 6.47351L12.112 2.55151C7.20913 5.09931 3.45753 9.30294 1.47845 14.5115C-0.65506 20.1293 -0.474313 26.24 1.98727 31.7236C5.72774 40.0559 13.9443 45.0022 22.5335 45C25.4148 45 28.3366 44.4363 31.147 43.2633L29.3168 39.3468Z" fill="white"/>
</g>
<defs>
<clipPath id="clip0_1658_616">
<rect width="45" height="45" fill="white"/>
</clipPath>
</defs>
</svg>
