<svg width="1920" height="1080" viewBox="0 0 1920 1080" fill="none" xmlns="http://www.w3.org/2000/svg">
<rect width="1920" height="1080" fill="white"/>
<path d="M354 361.1C354 329.3 347.35 305.7 334.05 290.3C320.75 274.8 300.9 267.05 274.5 267.05H236.1L233.4 255.5H283.2C309.2 255.5 331.25 259.5 349.35 267.5C367.55 275.5 381.4 287.15 390.9 302.45C400.5 317.65 405.3 336.1 405.3 357.8C405.3 382.5 400.05 403.2 389.55 419.9C379.05 436.5 364.75 449 346.65 457.4C328.65 465.8 308.25 470 285.45 470H233.4L236.1 458.45H279.3C295.3 458.45 308.85 455.2 319.95 448.7C331.05 442.2 339.5 431.8 345.3 417.5C351.1 403.2 354 384.4 354 361.1ZM185.85 470V465.05L210.45 458.45V266.9L185.85 260.45V255.5H260.55V470H185.85ZM502.748 312.8C514.648 312.8 524.848 315.2 533.348 320C541.848 324.7 548.548 331.6 553.448 340.7C558.348 349.7 561.248 360.7 562.148 373.7H461.348V362.9H541.598L522.098 369.8C521.298 358 519.898 348.65 517.898 341.75C515.998 334.75 513.398 329.75 510.098 326.75C506.798 323.65 502.698 322.1 497.798 322.1C491.598 322.1 486.248 323.95 481.748 327.65C477.348 331.35 473.998 337.25 471.698 345.35C469.398 353.45 468.248 364.05 468.248 377.15C468.248 393.05 470.198 405.9 474.098 415.7C477.998 425.5 483.748 432.65 491.348 437.15C498.948 441.55 508.248 443.75 519.248 443.75C524.748 443.75 529.948 443.1 534.848 441.8C539.748 440.5 544.448 438.4 548.948 435.5C553.548 432.6 557.898 428.85 561.998 424.25L565.148 426.8C558.448 438.5 551.698 447.75 544.898 454.55C538.098 461.35 530.948 466.25 523.448 469.25C516.048 472.15 507.898 473.6 498.998 473.6C484.798 473.6 472.198 470.6 461.198 464.6C450.198 458.6 441.598 449.85 435.398 438.35C429.198 426.75 426.098 412.7 426.098 396.2C426.098 381.2 429.048 367.4 434.948 354.8C440.848 342.1 449.498 331.95 460.898 324.35C472.298 316.65 486.248 312.8 502.748 312.8ZM642.478 312.8C650.378 312.8 657.328 313.45 663.328 314.75C669.428 316.05 675.628 318.05 681.928 320.75L687.628 362.3H682.828L660.028 321.5L673.078 334.7C667.578 329.5 662.378 325.85 657.478 323.75C652.678 321.55 647.278 320.45 641.278 320.45C632.578 320.45 625.928 322.2 621.328 325.7C616.728 329.1 614.428 334.2 614.428 341C614.428 344.8 615.278 348.25 616.978 351.35C618.678 354.45 622.128 357.55 627.328 360.65C632.628 363.65 640.678 366.95 651.478 370.55C659.478 373.25 666.178 376.3 671.578 379.7C677.078 383.1 681.428 386.9 684.628 391.1C687.828 395.3 690.128 399.9 691.528 404.9C692.928 409.9 693.628 415.3 693.628 421.1C693.628 431.4 690.778 440.5 685.078 448.4C679.478 456.3 671.828 462.5 662.128 467C652.428 471.4 641.378 473.6 628.978 473.6C619.778 473.6 611.778 472.85 604.978 471.35C598.278 469.85 592.278 467.75 586.978 465.05L578.578 417.2H583.978L611.278 465.65L602.728 457.25C605.428 459.15 608.278 460.75 611.278 462.05C614.378 463.25 617.528 464.2 620.728 464.9C624.028 465.5 627.328 465.8 630.628 465.8C639.228 465.8 646.578 463.55 652.678 459.05C658.878 454.55 661.978 447.7 661.978 438.5C661.978 434.9 661.328 431.65 660.028 428.75C658.828 425.85 656.778 423.1 653.878 420.5C651.078 417.9 647.228 415.4 642.328 413C637.528 410.6 631.428 408.25 624.028 405.95C614.228 402.75 606.328 399 600.328 394.7C594.328 390.4 589.978 385.45 587.278 379.85C584.578 374.15 583.228 367.65 583.228 360.35C583.228 350.55 585.828 342.1 591.028 335C596.328 327.9 603.428 322.45 612.328 318.65C621.328 314.75 631.378 312.8 642.478 312.8ZM748.772 294.8C741.272 294.8 735.322 292.35 730.922 287.45C726.622 282.55 724.472 276.95 724.472 270.65C724.472 264.45 726.622 259.15 730.922 254.75C735.322 250.35 741.272 248.15 748.772 248.15C756.272 248.15 762.072 250.35 766.172 254.75C770.372 259.15 772.472 264.45 772.472 270.65C772.472 276.95 770.372 282.55 766.172 287.45C762.072 292.35 756.272 294.8 748.772 294.8ZM772.472 311.75V342.5V461L789.722 465.5V470H710.972V465.5L728.822 460.7V349.1C727.722 348.1 726.222 346.8 724.322 345.2C722.422 343.6 720.222 341.7 717.722 339.5C715.222 337.3 712.422 334.85 709.322 332.15V328.4L770.522 311.75H772.472ZM864.164 539.75C851.664 539.75 841.064 538.95 832.364 537.35C823.764 535.75 816.814 533.45 811.514 530.45C806.314 527.55 802.514 524.15 800.114 520.25C797.814 516.45 796.664 512.35 796.664 507.95C796.664 504.25 797.764 500.75 799.964 497.45C802.164 494.25 805.664 491.25 810.464 488.45C815.264 485.75 821.614 483.2 829.514 480.8C837.514 478.5 847.264 476.35 858.764 474.35H872.114L871.964 476.45C860.464 477.85 851.464 479.8 844.964 482.3C838.464 484.8 833.864 487.8 831.164 491.3C828.464 494.8 827.114 498.75 827.114 503.15C827.114 508.95 829.114 513.9 833.114 518C837.114 522.2 842.714 525.4 849.914 527.6C857.114 529.8 865.664 530.9 875.564 530.9C886.364 530.9 895.214 529.7 902.114 527.3C909.114 525 914.314 521.85 917.714 517.85C921.114 513.85 922.814 509.35 922.814 504.35C922.814 500.35 921.614 497.05 919.214 494.45C916.814 491.85 913.064 489.7 907.964 488C902.964 486.3 896.514 484.9 888.614 483.8C880.714 482.7 871.264 481.8 860.264 481.1C850.564 480.2 842.414 478.8 835.814 476.9C829.214 475 823.914 472.5 819.914 469.4C815.914 466.3 813.014 462.75 811.214 458.75C809.414 454.65 808.514 450.05 808.514 444.95C808.514 436.55 812.414 429.25 820.214 423.05C828.014 416.85 839.114 412.55 853.514 410.15L855.464 414.05C848.564 414.55 843.714 416 840.914 418.4C838.214 420.7 836.864 423.3 836.864 426.2C836.864 428.8 837.464 431 838.664 432.8C839.864 434.5 842.164 436 845.564 437.3C849.064 438.5 854.014 439.55 860.414 440.45C866.914 441.35 875.414 442.25 885.914 443.15C897.814 444.15 907.914 445.8 916.214 448.1C924.514 450.4 931.264 453.4 936.464 457.1C941.764 460.7 945.614 465 948.014 470C950.514 474.9 951.764 480.55 951.764 486.95C951.764 496.25 948.614 504.9 942.314 512.9C936.114 520.9 926.564 527.35 913.664 532.25C900.764 537.25 884.264 539.75 864.164 539.75ZM868.214 416C855.914 416 845.064 413.85 835.664 409.55C826.264 405.25 818.914 399.25 813.614 391.55C808.414 383.85 805.814 374.85 805.814 364.55C805.814 354.35 808.464 345.4 813.764 337.7C819.164 329.9 826.514 323.8 835.814 319.4C845.214 315 855.864 312.8 867.764 312.8C877.264 312.8 885.864 314.05 893.564 316.55C901.264 318.95 907.864 322.45 913.364 327.05C918.964 331.65 923.214 337.1 926.114 343.4C929.114 349.7 930.614 356.7 930.614 364.4C930.614 374.5 927.964 383.45 922.664 391.25C917.364 398.95 910.014 405 900.614 409.4C891.314 413.8 880.514 416 868.214 416ZM871.514 408.35C878.514 407.65 883.514 403.7 886.514 396.5C889.614 389.3 890.714 379.75 889.814 367.85C889.014 352.25 886.414 340.35 882.014 332.15C877.714 323.85 871.864 319.95 864.464 320.45C857.964 320.95 853.164 324.85 850.064 332.15C846.964 339.35 845.764 348.9 846.464 360.8C847.264 376.2 849.864 388.1 854.264 396.5C858.664 404.9 864.414 408.85 871.514 408.35ZM888.764 318.95L881.114 313.85C895.414 314.75 906.964 315.05 915.764 314.75C924.664 314.45 931.564 313.85 936.464 312.95C941.364 312.05 945.064 311.25 947.564 310.55C950.064 309.75 952.214 309.35 954.014 309.35C956.014 309.35 957.714 310.05 959.114 311.45C960.514 312.85 961.214 315.3 961.214 318.8C961.214 325 959.564 330.15 956.264 334.25C953.064 338.35 949.414 340.4 945.314 340.4C942.514 340.4 939.664 339.4 936.764 337.4C933.964 335.4 930.564 333.05 926.564 330.35C922.564 327.65 917.514 325.2 911.414 323C905.414 320.7 897.864 319.35 888.764 318.95ZM1027.05 345.65V461L1044.3 465.5V470H965.555V465.5L983.405 460.7V349.1C981.705 347.6 979.355 345.45 976.355 342.65C973.355 339.75 969.205 336.25 963.905 332.15V328.4L1025.1 311.75H1027.05V345.65ZM1064.25 465.5L1081.5 461V367.7C1081.5 361.8 1080.55 357 1078.65 353.3C1076.75 349.6 1073.9 346.85 1070.1 345.05C1066.3 343.25 1061.4 342.35 1055.4 342.35C1049.4 342.35 1043.6 343.2 1038 344.9C1032.4 346.5 1027.15 348.45 1022.25 350.75L1021.05 347.9C1028.85 340.4 1035.55 334.35 1041.15 329.75C1046.75 325.15 1051.75 321.7 1056.15 319.4C1060.65 317 1065 315.4 1069.2 314.6C1073.5 313.8 1078.25 313.4 1083.45 313.4C1097.55 313.4 1108.05 317.3 1114.95 325.1C1121.85 332.8 1125.3 344.4 1125.3 359.9V460.7L1143 465.5V470H1064.25V465.5ZM328.8 615.8C328.8 605.4 326.8 596.6 322.8 589.4C318.8 582.1 312.25 576.55 303.15 572.75C294.15 568.95 282.15 567.05 267.15 567.05H232.65L234.15 555.5H298.35C317.35 555.5 332.65 558.15 344.25 563.45C355.95 568.75 364.5 575.85 369.9 584.75C375.3 593.65 378 603.6 378 614.6C378 625.7 375.2 635.95 369.6 645.35C364.1 654.65 355.45 662.1 343.65 667.7C331.95 673.2 316.85 675.95 298.35 675.95H234.15L232.65 664.4H279.45C289.05 664.4 297.55 662.55 304.95 658.85C312.45 655.15 318.3 649.7 322.5 642.5C326.7 635.3 328.8 626.4 328.8 615.8ZM260.55 555.5V758.45L285.15 765.05V770H185.85V765.05L210.45 758.45V566.9L185.85 560.45V555.5H260.55ZM450.007 760.7L467.857 765.5V770H388.357V765.5L406.207 760.7V582.05C404.907 581.15 403.107 579.9 400.807 578.3C398.507 576.7 395.757 574.8 392.557 572.6C389.357 570.4 385.807 567.9 381.907 565.1V561.5L447.907 546.8H450.007V575.6V760.7ZM575.341 671.75L575.641 678.95C565.141 682.55 556.591 686 549.991 689.3C543.491 692.6 538.491 696 534.991 699.5C531.591 702.9 529.241 706.6 527.941 710.6C526.641 714.5 525.991 718.85 525.991 723.65C525.991 731.95 527.891 738.05 531.691 741.95C535.591 745.85 540.491 747.8 546.391 747.8C550.591 747.8 554.241 746.95 557.341 745.25C560.541 743.55 562.991 741 564.691 737.6C566.491 734.1 567.391 729.7 567.391 724.4V653.9C567.391 645.1 565.091 638.3 560.491 633.5C555.891 628.7 548.941 626.3 539.641 626.3C534.941 626.3 530.491 626.6 526.291 627.2C522.191 627.7 518.841 628.45 516.241 629.45L522.991 621.5C522.391 627.3 521.741 632.35 521.041 636.65C520.341 640.95 519.491 644.6 518.491 647.6C517.591 650.5 516.541 652.75 515.341 654.35C513.741 656.35 511.441 658 508.441 659.3C505.441 660.5 502.141 661.1 498.541 661.1C493.941 661.1 490.441 660.3 488.041 658.7C485.641 657 484.441 654.6 484.441 651.5C484.441 647.1 486.641 642.65 491.041 638.15C495.441 633.65 501.241 629.5 508.441 625.7C515.641 621.8 523.591 618.7 532.291 616.4C541.091 614 549.891 612.8 558.691 612.8C571.391 612.8 581.541 614.65 589.141 618.35C596.841 621.95 602.391 627.15 605.791 633.95C609.291 640.65 611.041 648.55 611.041 657.65V741.2C611.041 744 611.491 746.3 612.391 748.1C613.291 749.8 614.541 751.05 616.141 751.85C617.841 752.65 619.791 753.05 621.991 753.05C624.791 753.05 627.541 752.65 630.241 751.85C633.041 751.05 635.891 749.75 638.791 747.95V754.25C631.191 762.05 624.191 767.25 617.791 769.85C611.391 772.35 604.341 773.6 596.641 773.6C589.541 773.6 583.891 772.2 579.691 769.4C575.491 766.6 572.441 762.4 570.541 756.8C568.641 751.1 567.541 743.95 567.241 735.35L568.741 736.25C566.841 744.25 563.941 751 560.041 756.5C556.141 762 551.441 766.2 545.941 769.1C540.441 772 534.341 773.45 527.641 773.45C513.841 773.45 502.941 770 494.941 763.1C487.041 756.1 483.091 746.4 483.091 734C483.091 727.7 484.191 722.05 486.391 717.05C488.591 712.05 492.841 707.3 499.141 702.8C505.441 698.3 514.691 693.6 526.891 688.7C539.191 683.7 555.341 678.05 575.341 671.75ZM740.128 731.9L718.378 780.65L639.478 627.2L622.378 621.2V616.4H707.428V621.35L688.228 626.3L740.128 731.9ZM668.578 839.15C661.478 839.15 655.628 837.25 651.028 833.45C646.528 829.75 644.278 824.35 644.278 817.25C644.278 814.05 644.828 811.3 645.928 809C647.028 806.8 648.378 805.05 649.978 803.75C651.578 802.55 653.128 801.95 654.628 801.95C655.528 801.95 657.078 802.5 659.278 803.6C661.578 804.8 664.378 805.95 667.678 807.05C671.078 808.15 674.928 808.7 679.228 808.7C684.528 808.7 689.078 808.1 692.878 806.9C696.778 805.8 700.178 803.75 703.078 800.75C705.978 797.75 708.678 793.5 711.178 788L720.328 767.6L732.778 738.2L772.078 625.55L752.578 621.35V616.4H801.628V621.35L784.378 625.55L722.878 784.85C717.478 798.65 712.028 809.45 706.528 817.25C701.028 825.15 695.178 830.75 688.978 834.05C682.878 837.45 676.078 839.15 668.578 839.15ZM830.002 760.25L848.752 757.85L815.302 775.55L813.202 774.2L820.252 736.7V583.4C818.952 582.4 817.152 581.05 814.852 579.35C812.652 577.55 810.002 575.45 806.902 573.05C803.802 570.55 800.302 567.75 796.402 564.65V561.2L862.402 546.8H865.102L863.902 574.85V736.25C863.902 741.95 865.052 746.95 867.352 751.25C869.752 755.55 873.052 758.9 877.252 761.3C881.552 763.7 886.402 764.9 891.802 764.9C899.302 764.9 905.702 762.6 911.002 758C916.402 753.3 920.502 745.95 923.302 735.95C926.202 725.95 927.652 713 927.652 697.1C927.652 683.1 926.252 671.75 923.452 663.05C920.752 654.35 916.602 648 911.002 644C905.502 640 898.452 638 889.852 638C885.752 638 881.802 638.45 878.002 639.35C874.202 640.25 870.452 641.7 866.752 643.7C863.152 645.7 859.502 648.45 855.802 651.95L854.452 647.9C861.152 640.7 867.152 634.85 872.452 630.35C877.852 625.75 882.802 622.2 887.302 619.7C891.802 617.1 896.102 615.3 900.202 614.3C904.402 613.3 908.602 612.8 912.802 612.8C925.402 612.8 936.202 615.6 945.202 621.2C954.202 626.8 961.102 634.9 965.902 645.5C970.702 656.1 973.102 668.95 973.102 684.05C973.102 698.55 970.952 711.35 966.652 722.45C962.452 733.55 956.452 742.9 948.652 750.5C940.952 758.1 931.852 763.85 921.352 767.75C910.852 771.65 899.302 773.6 886.702 773.6C880.102 773.6 873.552 773.15 867.052 772.25C860.652 771.35 854.352 769.9 848.152 767.9C841.952 765.9 835.902 763.35 830.002 760.25ZM1070.71 764.75C1078.21 764.75 1084.36 762.3 1089.16 757.4C1093.96 752.5 1097.46 744.95 1099.66 734.75C1101.96 724.55 1103.11 711.6 1103.11 695.9C1103.11 679.5 1102.01 665.8 1099.81 654.8C1097.61 643.8 1094.11 635.55 1089.31 630.05C1084.61 624.45 1078.46 621.65 1070.86 621.65C1063.36 621.65 1057.21 624.1 1052.41 629C1047.61 633.9 1044.06 641.45 1041.76 651.65C1039.46 661.85 1038.31 674.8 1038.31 690.5C1038.31 706.8 1039.41 720.5 1041.61 731.6C1043.81 742.6 1047.26 750.9 1051.96 756.5C1056.76 762 1063.01 764.75 1070.71 764.75ZM1069.36 773.6C1054.46 773.6 1041.21 770.2 1029.61 763.4C1018.01 756.6 1008.86 747.2 1002.16 735.2C995.557 723.1 992.257 709.2 992.257 693.5C992.257 677.6 995.757 663.6 1002.76 651.5C1009.76 639.3 1019.26 629.8 1031.26 623C1043.36 616.2 1056.96 612.8 1072.06 612.8C1087.26 612.8 1100.66 616.2 1112.26 623C1123.86 629.7 1132.91 639.1 1139.41 651.2C1146.01 663.2 1149.31 677.1 1149.31 692.9C1149.31 708.8 1145.71 722.85 1138.51 735.05C1131.41 747.15 1121.81 756.6 1109.71 763.4C1097.71 770.2 1084.26 773.6 1069.36 773.6ZM1246.49 764.75C1253.99 764.75 1260.14 762.3 1264.94 757.4C1269.74 752.5 1273.24 744.95 1275.44 734.75C1277.74 724.55 1278.89 711.6 1278.89 695.9C1278.89 679.5 1277.79 665.8 1275.59 654.8C1273.39 643.8 1269.89 635.55 1265.09 630.05C1260.39 624.45 1254.24 621.65 1246.64 621.65C1239.14 621.65 1232.99 624.1 1228.19 629C1223.39 633.9 1219.84 641.45 1217.54 651.65C1215.24 661.85 1214.09 674.8 1214.09 690.5C1214.09 706.8 1215.19 720.5 1217.39 731.6C1219.59 742.6 1223.04 750.9 1227.74 756.5C1232.54 762 1238.79 764.75 1246.49 764.75ZM1245.14 773.6C1230.24 773.6 1216.99 770.2 1205.39 763.4C1193.79 756.6 1184.64 747.2 1177.94 735.2C1171.34 723.1 1168.04 709.2 1168.04 693.5C1168.04 677.6 1171.54 663.6 1178.54 651.5C1185.54 639.3 1195.04 629.8 1207.04 623C1219.14 616.2 1232.74 612.8 1247.84 612.8C1263.04 612.8 1276.44 616.2 1288.04 623C1299.64 629.7 1308.69 639.1 1315.19 651.2C1321.79 663.2 1325.09 677.1 1325.09 692.9C1325.09 708.8 1321.49 722.85 1314.29 735.05C1307.19 747.15 1297.59 756.6 1285.49 763.4C1273.49 770.2 1260.04 773.6 1245.14 773.6ZM1417.62 677.9L1434.12 662.6L1506.87 760.7L1521.57 765.5V770H1440.12V765.5L1456.02 761.45L1403.22 689.6H1391.52V681.05H1404.27L1472.22 626.6L1449.12 621.35V616.4H1511.67V621.35L1487.67 626.75L1417.62 677.9ZM1401.27 760.7L1418.52 765.5V770H1339.77V765.5L1357.47 760.7V582.05C1356.17 581.15 1354.37 579.9 1352.07 578.3C1349.77 576.7 1347.02 574.8 1343.82 572.6C1340.62 570.4 1337.07 567.9 1333.17 565.1V561.5L1399.17 546.8H1401.27V574.85V760.7Z" fill="#00FBFF"/>
<path d="M345 352.1C345 320.3 338.35 296.7 325.05 281.3C311.75 265.8 291.9 258.05 265.5 258.05H227.1L224.4 246.5H274.2C300.2 246.5 322.25 250.5 340.35 258.5C358.55 266.5 372.4 278.15 381.9 293.45C391.5 308.65 396.3 327.1 396.3 348.8C396.3 373.5 391.05 394.2 380.55 410.9C370.05 427.5 355.75 440 337.65 448.4C319.65 456.8 299.25 461 276.45 461H224.4L227.1 449.45H270.3C286.3 449.45 299.85 446.2 310.95 439.7C322.05 433.2 330.5 422.8 336.3 408.5C342.1 394.2 345 375.4 345 352.1ZM176.85 461V456.05L201.45 449.45V257.9L176.85 251.45V246.5H251.55V461H176.85ZM493.748 303.8C505.648 303.8 515.848 306.2 524.348 311C532.848 315.7 539.548 322.6 544.448 331.7C549.348 340.7 552.248 351.7 553.148 364.7H452.348V353.9H532.598L513.098 360.8C512.298 349 510.898 339.65 508.898 332.75C506.998 325.75 504.398 320.75 501.098 317.75C497.798 314.65 493.698 313.1 488.798 313.1C482.598 313.1 477.248 314.95 472.748 318.65C468.348 322.35 464.998 328.25 462.698 336.35C460.398 344.45 459.248 355.05 459.248 368.15C459.248 384.05 461.198 396.9 465.098 406.7C468.998 416.5 474.748 423.65 482.348 428.15C489.948 432.55 499.248 434.75 510.248 434.75C515.748 434.75 520.948 434.1 525.848 432.8C530.748 431.5 535.448 429.4 539.948 426.5C544.548 423.6 548.898 419.85 552.998 415.25L556.148 417.8C549.448 429.5 542.698 438.75 535.898 445.55C529.098 452.35 521.948 457.25 514.448 460.25C507.048 463.15 498.898 464.6 489.998 464.6C475.798 464.6 463.198 461.6 452.198 455.6C441.198 449.6 432.598 440.85 426.398 429.35C420.198 417.75 417.098 403.7 417.098 387.2C417.098 372.2 420.048 358.4 425.948 345.8C431.848 333.1 440.498 322.95 451.898 315.35C463.298 307.65 477.248 303.8 493.748 303.8ZM633.478 303.8C641.378 303.8 648.328 304.45 654.328 305.75C660.428 307.05 666.628 309.05 672.928 311.75L678.628 353.3H673.828L651.028 312.5L664.078 325.7C658.578 320.5 653.378 316.85 648.478 314.75C643.678 312.55 638.278 311.45 632.278 311.45C623.578 311.45 616.928 313.2 612.328 316.7C607.728 320.1 605.428 325.2 605.428 332C605.428 335.8 606.278 339.25 607.978 342.35C609.678 345.45 613.128 348.55 618.328 351.65C623.628 354.65 631.678 357.95 642.478 361.55C650.478 364.25 657.178 367.3 662.578 370.7C668.078 374.1 672.428 377.9 675.628 382.1C678.828 386.3 681.128 390.9 682.528 395.9C683.928 400.9 684.628 406.3 684.628 412.1C684.628 422.4 681.778 431.5 676.078 439.4C670.478 447.3 662.828 453.5 653.128 458C643.428 462.4 632.378 464.6 619.978 464.6C610.778 464.6 602.778 463.85 595.978 462.35C589.278 460.85 583.278 458.75 577.978 456.05L569.578 408.2H574.978L602.278 456.65L593.728 448.25C596.428 450.15 599.278 451.75 602.278 453.05C605.378 454.25 608.528 455.2 611.728 455.9C615.028 456.5 618.328 456.8 621.628 456.8C630.228 456.8 637.578 454.55 643.678 450.05C649.878 445.55 652.978 438.7 652.978 429.5C652.978 425.9 652.328 422.65 651.028 419.75C649.828 416.85 647.778 414.1 644.878 411.5C642.078 408.9 638.228 406.4 633.328 404C628.528 401.6 622.428 399.25 615.028 396.95C605.228 393.75 597.328 390 591.328 385.7C585.328 381.4 580.978 376.45 578.278 370.85C575.578 365.15 574.228 358.65 574.228 351.35C574.228 341.55 576.828 333.1 582.028 326C587.328 318.9 594.428 313.45 603.328 309.65C612.328 305.75 622.378 303.8 633.478 303.8ZM739.772 285.8C732.272 285.8 726.322 283.35 721.922 278.45C717.622 273.55 715.472 267.95 715.472 261.65C715.472 255.45 717.622 250.15 721.922 245.75C726.322 241.35 732.272 239.15 739.772 239.15C747.272 239.15 753.072 241.35 757.172 245.75C761.372 250.15 763.472 255.45 763.472 261.65C763.472 267.95 761.372 273.55 757.172 278.45C753.072 283.35 747.272 285.8 739.772 285.8ZM763.472 302.75V333.5V452L780.722 456.5V461H701.972V456.5L719.822 451.7V340.1C718.722 339.1 717.222 337.8 715.322 336.2C713.422 334.6 711.222 332.7 708.722 330.5C706.222 328.3 703.422 325.85 700.322 323.15V319.4L761.522 302.75H763.472ZM855.164 530.75C842.664 530.75 832.064 529.95 823.364 528.35C814.764 526.75 807.814 524.45 802.514 521.45C797.314 518.55 793.514 515.15 791.114 511.25C788.814 507.45 787.664 503.35 787.664 498.95C787.664 495.25 788.764 491.75 790.964 488.45C793.164 485.25 796.664 482.25 801.464 479.45C806.264 476.75 812.614 474.2 820.514 471.8C828.514 469.5 838.264 467.35 849.764 465.35H863.114L862.964 467.45C851.464 468.85 842.464 470.8 835.964 473.3C829.464 475.8 824.864 478.8 822.164 482.3C819.464 485.8 818.114 489.75 818.114 494.15C818.114 499.95 820.114 504.9 824.114 509C828.114 513.2 833.714 516.4 840.914 518.6C848.114 520.8 856.664 521.9 866.564 521.9C877.364 521.9 886.214 520.7 893.114 518.3C900.114 516 905.314 512.85 908.714 508.85C912.114 504.85 913.814 500.35 913.814 495.35C913.814 491.35 912.614 488.05 910.214 485.45C907.814 482.85 904.064 480.7 898.964 479C893.964 477.3 887.514 475.9 879.614 474.8C871.714 473.7 862.264 472.8 851.264 472.1C841.564 471.2 833.414 469.8 826.814 467.9C820.214 466 814.914 463.5 810.914 460.4C806.914 457.3 804.014 453.75 802.214 449.75C800.414 445.65 799.514 441.05 799.514 435.95C799.514 427.55 803.414 420.25 811.214 414.05C819.014 407.85 830.114 403.55 844.514 401.15L846.464 405.05C839.564 405.55 834.714 407 831.914 409.4C829.214 411.7 827.864 414.3 827.864 417.2C827.864 419.8 828.464 422 829.664 423.8C830.864 425.5 833.164 427 836.564 428.3C840.064 429.5 845.014 430.55 851.414 431.45C857.914 432.35 866.414 433.25 876.914 434.15C888.814 435.15 898.914 436.8 907.214 439.1C915.514 441.4 922.264 444.4 927.464 448.1C932.764 451.7 936.614 456 939.014 461C941.514 465.9 942.764 471.55 942.764 477.95C942.764 487.25 939.614 495.9 933.314 503.9C927.114 511.9 917.564 518.35 904.664 523.25C891.764 528.25 875.264 530.75 855.164 530.75ZM859.214 407C846.914 407 836.064 404.85 826.664 400.55C817.264 396.25 809.914 390.25 804.614 382.55C799.414 374.85 796.814 365.85 796.814 355.55C796.814 345.35 799.464 336.4 804.764 328.7C810.164 320.9 817.514 314.8 826.814 310.4C836.214 306 846.864 303.8 858.764 303.8C868.264 303.8 876.864 305.05 884.564 307.55C892.264 309.95 898.864 313.45 904.364 318.05C909.964 322.65 914.214 328.1 917.114 334.4C920.114 340.7 921.614 347.7 921.614 355.4C921.614 365.5 918.964 374.45 913.664 382.25C908.364 389.95 901.014 396 891.614 400.4C882.314 404.8 871.514 407 859.214 407ZM862.514 399.35C869.514 398.65 874.514 394.7 877.514 387.5C880.614 380.3 881.714 370.75 880.814 358.85C880.014 343.25 877.414 331.35 873.014 323.15C868.714 314.85 862.864 310.95 855.464 311.45C848.964 311.95 844.164 315.85 841.064 323.15C837.964 330.35 836.764 339.9 837.464 351.8C838.264 367.2 840.864 379.1 845.264 387.5C849.664 395.9 855.414 399.85 862.514 399.35ZM879.764 309.95L872.114 304.85C886.414 305.75 897.964 306.05 906.764 305.75C915.664 305.45 922.564 304.85 927.464 303.95C932.364 303.05 936.064 302.25 938.564 301.55C941.064 300.75 943.214 300.35 945.014 300.35C947.014 300.35 948.714 301.05 950.114 302.45C951.514 303.85 952.214 306.3 952.214 309.8C952.214 316 950.564 321.15 947.264 325.25C944.064 329.35 940.414 331.4 936.314 331.4C933.514 331.4 930.664 330.4 927.764 328.4C924.964 326.4 921.564 324.05 917.564 321.35C913.564 318.65 908.514 316.2 902.414 314C896.414 311.7 888.864 310.35 879.764 309.95ZM1018.05 336.65V452L1035.3 456.5V461H956.555V456.5L974.405 451.7V340.1C972.705 338.6 970.355 336.45 967.355 333.65C964.355 330.75 960.205 327.25 954.905 323.15V319.4L1016.1 302.75H1018.05V336.65ZM1055.25 456.5L1072.5 452V358.7C1072.5 352.8 1071.55 348 1069.65 344.3C1067.75 340.6 1064.9 337.85 1061.1 336.05C1057.3 334.25 1052.4 333.35 1046.4 333.35C1040.4 333.35 1034.6 334.2 1029 335.9C1023.4 337.5 1018.15 339.45 1013.25 341.75L1012.05 338.9C1019.85 331.4 1026.55 325.35 1032.15 320.75C1037.75 316.15 1042.75 312.7 1047.15 310.4C1051.65 308 1056 306.4 1060.2 305.6C1064.5 304.8 1069.25 304.4 1074.45 304.4C1088.55 304.4 1099.05 308.3 1105.95 316.1C1112.85 323.8 1116.3 335.4 1116.3 350.9V451.7L1134 456.5V461H1055.25V456.5ZM319.8 606.8C319.8 596.4 317.8 587.6 313.8 580.4C309.8 573.1 303.25 567.55 294.15 563.75C285.15 559.95 273.15 558.05 258.15 558.05H223.65L225.15 546.5H289.35C308.35 546.5 323.65 549.15 335.25 554.45C346.95 559.75 355.5 566.85 360.9 575.75C366.3 584.65 369 594.6 369 605.6C369 616.7 366.2 626.95 360.6 636.35C355.1 645.65 346.45 653.1 334.65 658.7C322.95 664.2 307.85 666.95 289.35 666.95H225.15L223.65 655.4H270.45C280.05 655.4 288.55 653.55 295.95 649.85C303.45 646.15 309.3 640.7 313.5 633.5C317.7 626.3 319.8 617.4 319.8 606.8ZM251.55 546.5V749.45L276.15 756.05V761H176.85V756.05L201.45 749.45V557.9L176.85 551.45V546.5H251.55ZM441.007 751.7L458.857 756.5V761H379.357V756.5L397.207 751.7V573.05C395.907 572.15 394.107 570.9 391.807 569.3C389.507 567.7 386.757 565.8 383.557 563.6C380.357 561.4 376.807 558.9 372.907 556.1V552.5L438.907 537.8H441.007V566.6V751.7ZM566.341 662.75L566.641 669.95C556.141 673.55 547.591 677 540.991 680.3C534.491 683.6 529.491 687 525.991 690.5C522.591 693.9 520.241 697.6 518.941 701.6C517.641 705.5 516.991 709.85 516.991 714.65C516.991 722.95 518.891 729.05 522.691 732.95C526.591 736.85 531.491 738.8 537.391 738.8C541.591 738.8 545.241 737.95 548.341 736.25C551.541 734.55 553.991 732 555.691 728.6C557.491 725.1 558.391 720.7 558.391 715.4V644.9C558.391 636.1 556.091 629.3 551.491 624.5C546.891 619.7 539.941 617.3 530.641 617.3C525.941 617.3 521.491 617.6 517.291 618.2C513.191 618.7 509.841 619.45 507.241 620.45L513.991 612.5C513.391 618.3 512.741 623.35 512.041 627.65C511.341 631.95 510.491 635.6 509.491 638.6C508.591 641.5 507.541 643.75 506.341 645.35C504.741 647.35 502.441 649 499.441 650.3C496.441 651.5 493.141 652.1 489.541 652.1C484.941 652.1 481.441 651.3 479.041 649.7C476.641 648 475.441 645.6 475.441 642.5C475.441 638.1 477.641 633.65 482.041 629.15C486.441 624.65 492.241 620.5 499.441 616.7C506.641 612.8 514.591 609.7 523.291 607.4C532.091 605 540.891 603.8 549.691 603.8C562.391 603.8 572.541 605.65 580.141 609.35C587.841 612.95 593.391 618.15 596.791 624.95C600.291 631.65 602.041 639.55 602.041 648.65V732.2C602.041 735 602.491 737.3 603.391 739.1C604.291 740.8 605.541 742.05 607.141 742.85C608.841 743.65 610.791 744.05 612.991 744.05C615.791 744.05 618.541 743.65 621.241 742.85C624.041 742.05 626.891 740.75 629.791 738.95V745.25C622.191 753.05 615.191 758.25 608.791 760.85C602.391 763.35 595.341 764.6 587.641 764.6C580.541 764.6 574.891 763.2 570.691 760.4C566.491 757.6 563.441 753.4 561.541 747.8C559.641 742.1 558.541 734.95 558.241 726.35L559.741 727.25C557.841 735.25 554.941 742 551.041 747.5C547.141 753 542.441 757.2 536.941 760.1C531.441 763 525.341 764.45 518.641 764.45C504.841 764.45 493.941 761 485.941 754.1C478.041 747.1 474.091 737.4 474.091 725C474.091 718.7 475.191 713.05 477.391 708.05C479.591 703.05 483.841 698.3 490.141 693.8C496.441 689.3 505.691 684.6 517.891 679.7C530.191 674.7 546.341 669.05 566.341 662.75ZM731.128 722.9L709.378 771.65L630.478 618.2L613.378 612.2V607.4H698.428V612.35L679.228 617.3L731.128 722.9ZM659.578 830.15C652.478 830.15 646.628 828.25 642.028 824.45C637.528 820.75 635.278 815.35 635.278 808.25C635.278 805.05 635.828 802.3 636.928 800C638.028 797.8 639.378 796.05 640.978 794.75C642.578 793.55 644.128 792.95 645.628 792.95C646.528 792.95 648.078 793.5 650.278 794.6C652.578 795.8 655.378 796.95 658.678 798.05C662.078 799.15 665.928 799.7 670.228 799.7C675.528 799.7 680.078 799.1 683.878 797.9C687.778 796.8 691.178 794.75 694.078 791.75C696.978 788.75 699.678 784.5 702.178 779L711.328 758.6L723.778 729.2L763.078 616.55L743.578 612.35V607.4H792.628V612.35L775.378 616.55L713.878 775.85C708.478 789.65 703.028 800.45 697.528 808.25C692.028 816.15 686.178 821.75 679.978 825.05C673.878 828.45 667.078 830.15 659.578 830.15ZM821.002 751.25L839.752 748.85L806.302 766.55L804.202 765.2L811.252 727.7V574.4C809.952 573.4 808.152 572.05 805.852 570.35C803.652 568.55 801.002 566.45 797.902 564.05C794.802 561.55 791.302 558.75 787.402 555.65V552.2L853.402 537.8H856.102L854.902 565.85V727.25C854.902 732.95 856.052 737.95 858.352 742.25C860.752 746.55 864.052 749.9 868.252 752.3C872.552 754.7 877.402 755.9 882.802 755.9C890.302 755.9 896.702 753.6 902.002 749C907.402 744.3 911.502 736.95 914.302 726.95C917.202 716.95 918.652 704 918.652 688.1C918.652 674.1 917.252 662.75 914.452 654.05C911.752 645.35 907.602 639 902.002 635C896.502 631 889.452 629 880.852 629C876.752 629 872.802 629.45 869.002 630.35C865.202 631.25 861.452 632.7 857.752 634.7C854.152 636.7 850.502 639.45 846.802 642.95L845.452 638.9C852.152 631.7 858.152 625.85 863.452 621.35C868.852 616.75 873.802 613.2 878.302 610.7C882.802 608.1 887.102 606.3 891.202 605.3C895.402 604.3 899.602 603.8 903.802 603.8C916.402 603.8 927.202 606.6 936.202 612.2C945.202 617.8 952.102 625.9 956.902 636.5C961.702 647.1 964.102 659.95 964.102 675.05C964.102 689.55 961.952 702.35 957.652 713.45C953.452 724.55 947.452 733.9 939.652 741.5C931.952 749.1 922.852 754.85 912.352 758.75C901.852 762.65 890.302 764.6 877.702 764.6C871.102 764.6 864.552 764.15 858.052 763.25C851.652 762.35 845.352 760.9 839.152 758.9C832.952 756.9 826.902 754.35 821.002 751.25ZM1061.71 755.75C1069.21 755.75 1075.36 753.3 1080.16 748.4C1084.96 743.5 1088.46 735.95 1090.66 725.75C1092.96 715.55 1094.11 702.6 1094.11 686.9C1094.11 670.5 1093.01 656.8 1090.81 645.8C1088.61 634.8 1085.11 626.55 1080.31 621.05C1075.61 615.45 1069.46 612.65 1061.86 612.65C1054.36 612.65 1048.21 615.1 1043.41 620C1038.61 624.9 1035.06 632.45 1032.76 642.65C1030.46 652.85 1029.31 665.8 1029.31 681.5C1029.31 697.8 1030.41 711.5 1032.61 722.6C1034.81 733.6 1038.26 741.9 1042.96 747.5C1047.76 753 1054.01 755.75 1061.71 755.75ZM1060.36 764.6C1045.46 764.6 1032.21 761.2 1020.61 754.4C1009.01 747.6 999.857 738.2 993.157 726.2C986.557 714.1 983.257 700.2 983.257 684.5C983.257 668.6 986.757 654.6 993.757 642.5C1000.76 630.3 1010.26 620.8 1022.26 614C1034.36 607.2 1047.96 603.8 1063.06 603.8C1078.26 603.8 1091.66 607.2 1103.26 614C1114.86 620.7 1123.91 630.1 1130.41 642.2C1137.01 654.2 1140.31 668.1 1140.31 683.9C1140.31 699.8 1136.71 713.85 1129.51 726.05C1122.41 738.15 1112.81 747.6 1100.71 754.4C1088.71 761.2 1075.26 764.6 1060.36 764.6ZM1237.49 755.75C1244.99 755.75 1251.14 753.3 1255.94 748.4C1260.74 743.5 1264.24 735.95 1266.44 725.75C1268.74 715.55 1269.89 702.6 1269.89 686.9C1269.89 670.5 1268.79 656.8 1266.59 645.8C1264.39 634.8 1260.89 626.55 1256.09 621.05C1251.39 615.45 1245.24 612.65 1237.64 612.65C1230.14 612.65 1223.99 615.1 1219.19 620C1214.39 624.9 1210.84 632.45 1208.54 642.65C1206.24 652.85 1205.09 665.8 1205.09 681.5C1205.09 697.8 1206.19 711.5 1208.39 722.6C1210.59 733.6 1214.04 741.9 1218.74 747.5C1223.54 753 1229.79 755.75 1237.49 755.75ZM1236.14 764.6C1221.24 764.6 1207.99 761.2 1196.39 754.4C1184.79 747.6 1175.64 738.2 1168.94 726.2C1162.34 714.1 1159.04 700.2 1159.04 684.5C1159.04 668.6 1162.54 654.6 1169.54 642.5C1176.54 630.3 1186.04 620.8 1198.04 614C1210.14 607.2 1223.74 603.8 1238.84 603.8C1254.04 603.8 1267.44 607.2 1279.04 614C1290.64 620.7 1299.69 630.1 1306.19 642.2C1312.79 654.2 1316.09 668.1 1316.09 683.9C1316.09 699.8 1312.49 713.85 1305.29 726.05C1298.19 738.15 1288.59 747.6 1276.49 754.4C1264.49 761.2 1251.04 764.6 1236.14 764.6ZM1408.62 668.9L1425.12 653.6L1497.87 751.7L1512.57 756.5V761H1431.12V756.5L1447.02 752.45L1394.22 680.6H1382.52V672.05H1395.27L1463.22 617.6L1440.12 612.35V607.4H1502.67V612.35L1478.67 617.75L1408.62 668.9ZM1392.27 751.7L1409.52 756.5V761H1330.77V756.5L1348.47 751.7V573.05C1347.17 572.15 1345.37 570.9 1343.07 569.3C1340.77 567.7 1338.02 565.8 1334.82 563.6C1331.62 561.4 1328.07 558.9 1324.17 556.1V552.5L1390.17 537.8H1392.27V565.85V751.7Z" fill="black"/>
</svg>
