<svg width="10531" height="2567" viewBox="0 0 10531 2567" fill="none" xmlns="http://www.w3.org/2000/svg">
<path opacity="0.3" d="M6501.75 1058.22C6501.75 669.221 6815.56 359.071 7190.79 377.2L9902.84 508.24C10179.8 521.62 10397.6 758.028 10397.6 1045.12C10397.6 1330.28 10182.6 1565.8 9907.67 1581.74L7196.91 1738.92C6819.46 1760.8 6501.75 1449.73 6501.75 1058.22Z" fill="#BAC94A"/>
<path opacity="0.3" d="M3579.83 1061.01C3579.83 593.599 3971.25 221.192 4438.71 243.851L7158.85 375.703C7523.3 393.368 7809.66 693.611 7809.66 1058.01C7809.66 1421.83 7524.16 1721.81 7160.32 1740.24L4440.52 1878.07C3972.4 1901.8 3579.83 1529.12 3579.83 1061.01Z" fill="#19B39F"/>
<path opacity="0.3" d="M986.272 1061.01C986.272 547.745 1396.69 136.698 1891.53 154.369L4421.94 244.734C4846.27 259.887 5182.71 620.87 5182.71 1061.01C5182.71 1501.15 4846.27 1862.13 4421.94 1877.28L1891.53 1967.65C1396.69 1985.32 986.272 1574.27 986.272 1061.01Z" fill="#6096FD"/>
<path d="M8394.04 1459.76C8383.73 1459.76 8375.38 1468.12 8375.38 1478.43C8375.38 1488.74 8383.73 1497.1 8394.04 1497.1C8404.35 1497.1 8412.71 1488.74 8412.71 1478.43C8412.71 1468.12 8404.35 1459.76 8394.04 1459.76ZM8391.57 2304.61C8392.93 2305.98 8395.15 2305.98 8396.52 2304.61L8418.79 2282.33C8420.16 2280.97 8420.16 2278.75 8418.79 2277.39C8417.42 2276.02 8415.21 2276.02 8413.84 2277.39L8394.04 2297.18L8374.24 2277.39C8372.88 2276.02 8370.66 2276.02 8369.29 2277.39C8367.93 2278.75 8367.93 2280.97 8369.29 2282.33L8391.57 2304.61ZM8390.54 1478.43L8390.54 1488.24L8397.54 1488.24L8397.54 1478.43L8390.54 1478.43ZM8390.54 1507.85L8390.54 1527.46L8397.54 1527.46L8397.54 1507.85L8390.54 1507.85ZM8390.54 1547.07L8390.54 1566.68L8397.54 1566.68L8397.54 1547.07L8390.54 1547.07ZM8390.54 1586.3L8390.54 1605.91L8397.54 1605.91L8397.54 1586.3L8390.54 1586.3ZM8390.54 1625.52L8390.54 1645.13L8397.54 1645.13L8397.54 1625.52L8390.54 1625.52ZM8390.54 1664.74L8390.54 1684.36L8397.54 1684.36L8397.54 1664.74L8390.54 1664.74ZM8390.54 1703.97L8390.54 1723.58L8397.54 1723.58L8397.54 1703.97L8390.54 1703.97ZM8390.54 1743.19L8390.54 1762.8L8397.54 1762.8L8397.54 1743.19L8390.54 1743.19ZM8390.54 1782.42L8390.54 1802.03L8397.54 1802.03L8397.54 1782.42L8390.54 1782.42ZM8390.54 1821.64L8390.54 1841.25L8397.54 1841.25L8397.54 1821.64L8390.54 1821.64ZM8390.54 1860.86L8390.54 1880.48L8397.54 1880.48L8397.54 1860.86L8390.54 1860.86ZM8390.54 1900.09L8390.54 1919.7L8397.54 1919.7L8397.54 1900.09L8390.54 1900.09ZM8390.54 1939.31L8390.54 1958.92L8397.54 1958.92L8397.54 1939.31L8390.54 1939.31ZM8390.54 1978.54L8390.54 1998.15L8397.54 1998.15L8397.54 1978.54L8390.54 1978.54ZM8390.54 2017.76L8390.54 2037.37L8397.54 2037.37L8397.54 2017.76L8390.54 2017.76ZM8390.54 2056.98L8390.54 2076.6L8397.54 2076.6L8397.54 2056.98L8390.54 2056.98ZM8390.54 2096.21L8390.54 2115.82L8397.54 2115.82L8397.54 2096.21L8390.54 2096.21ZM8390.54 2135.43L8390.54 2155.04L8397.54 2155.04L8397.54 2135.43L8390.54 2135.43ZM8390.54 2174.66L8390.54 2194.27L8397.54 2194.27L8397.54 2174.66L8390.54 2174.66ZM8390.54 2213.88L8390.54 2233.49L8397.54 2233.49L8397.54 2213.88L8390.54 2213.88ZM8390.54 2253.1L8390.54 2272.72L8397.54 2272.72L8397.54 2253.1L8390.54 2253.1ZM8390.54 2292.33L8390.54 2302.13L8397.54 2302.13L8397.54 2292.33L8390.54 2292.33Z" fill="black"/>
<path d="M5867.28 1621.16C5856.97 1621.16 5848.61 1629.52 5848.61 1639.83C5848.61 1650.14 5856.97 1658.49 5867.28 1658.49C5877.58 1658.49 5885.94 1650.14 5885.94 1639.83C5885.94 1629.52 5877.58 1621.16 5867.28 1621.16ZM5864.8 2304.61C5866.17 2305.97 5868.38 2305.97 5869.75 2304.61L5892.02 2282.33C5893.39 2280.96 5893.39 2278.75 5892.02 2277.38C5890.66 2276.02 5888.44 2276.02 5887.07 2277.38L5867.28 2297.18L5847.48 2277.38C5846.11 2276.02 5843.89 2276.02 5842.53 2277.38C5841.16 2278.75 5841.16 2280.96 5842.53 2282.33L5864.8 2304.61ZM5863.78 1639.83L5863.78 1649.57L5870.78 1649.57L5870.78 1639.83L5863.78 1639.83ZM5863.78 1669.05L5863.78 1688.53L5870.78 1688.53L5870.78 1669.05L5863.78 1669.05ZM5863.78 1708.01L5863.78 1727.49L5870.78 1727.49L5870.78 1708.01L5863.78 1708.01ZM5863.78 1746.97L5863.78 1766.44L5870.78 1766.44L5870.78 1746.97L5863.78 1746.97ZM5863.78 1785.92L5863.78 1805.4L5870.78 1805.4L5870.78 1785.92L5863.78 1785.92ZM5863.78 1824.88L5863.78 1844.36L5870.78 1844.36L5870.78 1824.88L5863.78 1824.88ZM5863.78 1863.84L5863.78 1883.32L5870.78 1883.32L5870.78 1863.84L5863.78 1863.84ZM5863.78 1902.8L5863.78 1922.28L5870.78 1922.28L5870.78 1902.8L5863.78 1902.8ZM5863.78 1941.76L5863.78 1961.24L5870.78 1961.24L5870.78 1941.76L5863.78 1941.76ZM5863.78 1980.72L5863.78 2000.2L5870.78 2000.2L5870.78 1980.72L5863.78 1980.72ZM5863.78 2019.68L5863.78 2039.16L5870.78 2039.16L5870.78 2019.68L5863.78 2019.68ZM5863.78 2058.64L5863.78 2078.12L5870.78 2078.12L5870.78 2058.64L5863.78 2058.64ZM5863.78 2097.6L5863.78 2117.08L5870.78 2117.08L5870.78 2097.6L5863.78 2097.6ZM5863.78 2136.56L5863.78 2156.03L5870.78 2156.03L5870.78 2136.56L5863.78 2136.56ZM5863.78 2175.51L5863.78 2194.99L5870.78 2194.99L5870.78 2175.51L5863.78 2175.51ZM5863.78 2214.47L5863.78 2233.95L5870.78 2233.95L5870.78 2214.47L5863.78 2214.47ZM5863.78 2253.43L5863.78 2272.91L5870.78 2272.91L5870.78 2253.43L5863.78 2253.43ZM5863.78 2292.39L5863.78 2302.13L5870.78 2302.13L5870.78 2292.39L5863.78 2292.39Z" fill="black"/>
<path d="M2950.92 1788.13C2940.61 1788.13 2932.25 1796.49 2932.25 1806.8C2932.25 1817.11 2940.61 1825.46 2950.92 1825.46C2961.23 1825.46 2969.58 1817.11 2969.58 1806.8C2969.58 1796.49 2961.23 1788.13 2950.92 1788.13ZM2948.44 2304.61C2949.81 2305.97 2952.03 2305.97 2953.39 2304.61L2975.67 2282.33C2977.03 2280.97 2977.03 2278.75 2975.67 2277.38C2974.3 2276.02 2972.08 2276.02 2970.72 2277.38L2950.92 2297.18L2931.12 2277.38C2929.75 2276.02 2927.54 2276.02 2926.17 2277.38C2924.8 2278.75 2924.8 2280.97 2926.17 2282.33L2948.44 2304.61ZM2947.42 1806.8L2947.42 1817.12L2954.42 1817.12L2954.42 1806.8L2947.42 1806.8ZM2947.42 1837.76L2947.42 1858.39L2954.42 1858.39L2954.42 1837.76L2947.42 1837.76ZM2947.42 1879.03L2947.42 1899.67L2954.42 1899.67L2954.42 1879.03L2947.42 1879.03ZM2947.42 1920.31L2947.42 1940.95L2954.42 1940.95L2954.42 1920.31L2947.42 1920.31ZM2947.42 1961.59L2947.42 1982.23L2954.42 1982.23L2954.42 1961.59L2947.42 1961.59ZM2947.42 2002.87L2947.42 2023.51L2954.42 2023.51L2954.42 2002.87L2947.42 2002.87ZM2947.42 2044.15L2947.42 2064.78L2954.42 2064.78L2954.42 2044.15L2947.42 2044.15ZM2947.42 2085.42L2947.42 2106.06L2954.42 2106.06L2954.42 2085.42L2947.42 2085.42ZM2947.42 2126.7L2947.42 2147.34L2954.42 2147.34L2954.42 2126.7L2947.42 2126.7ZM2947.42 2167.98L2947.42 2188.62L2954.42 2188.62L2954.42 2167.98L2947.42 2167.98ZM2947.42 2209.26L2947.42 2229.9L2954.42 2229.9L2954.42 2209.26L2947.42 2209.26ZM2947.42 2250.53L2947.42 2271.17L2954.42 2271.17L2954.42 2250.53L2947.42 2250.53ZM2947.42 2291.81L2947.42 2302.13L2954.42 2302.13L2954.42 2291.81L2947.42 2291.81Z" fill="black"/>
<path d="M497.81 1055.47C499.177 1054.11 499.177 1051.89 497.81 1050.53L475.537 1028.25C474.17 1026.88 471.954 1026.88 470.587 1028.25C469.22 1029.62 469.22 1031.83 470.587 1033.2L490.386 1053L470.587 1072.8C469.22 1074.17 469.22 1076.38 470.587 1077.75C471.954 1079.12 474.17 1079.12 475.537 1077.75L497.81 1055.47ZM0 1056.5H10.3195V1049.5H0L0 1056.5ZM30.9585 1056.5H51.5975V1049.5H30.9585V1056.5ZM72.2364 1056.5H92.8754V1049.5H72.2364V1056.5ZM113.514 1056.5H134.153V1049.5H113.514V1056.5ZM154.792 1056.5H175.431V1049.5H154.792V1056.5ZM196.07 1056.5H216.709V1049.5H196.07V1056.5ZM237.348 1056.5H257.987V1049.5H237.348V1056.5ZM278.626 1056.5H299.265V1049.5H278.626V1056.5ZM319.904 1056.5H340.543V1049.5H319.904V1056.5ZM361.182 1056.5H381.821V1049.5H361.182V1056.5ZM402.46 1056.5H423.099V1049.5H402.46V1056.5ZM443.738 1056.5H464.377V1049.5H443.738V1056.5ZM485.016 1056.5H495.336V1049.5H485.016V1056.5Z" fill="black"/>
<path d="M1873.67 28.4749C1875.04 27.108 1875.04 24.892 1873.67 23.5251L1851.4 1.25126C1850.03 -0.115572 1847.82 -0.115572 1846.45 1.25126C1845.08 2.6181 1845.08 4.83418 1846.45 6.20101L1866.25 26L1846.45 45.799C1845.08 47.1658 1845.08 49.3819 1846.45 50.7487C1847.82 52.1156 1850.03 52.1156 1851.4 50.7487L1873.67 28.4749ZM1683.61 2075.88C1680.34 2075.28 1677.07 2074.66 1673.81 2074.03L1672.48 2080.9C1675.77 2081.54 1679.05 2082.16 1682.35 2082.76L1683.61 2075.88ZM1654.32 2070.06C1647.83 2068.67 1641.37 2067.22 1634.93 2065.71L1633.33 2072.53C1639.82 2074.05 1646.32 2075.5 1652.85 2076.9L1654.32 2070.06ZM1615.59 2060.98C1609.16 2059.34 1602.76 2057.65 1596.39 2055.89L1594.53 2062.64C1600.95 2064.41 1607.39 2066.12 1613.86 2067.76L1615.59 2060.98ZM1577.24 2050.41C1570.88 2048.52 1564.55 2046.58 1558.24 2044.57L1556.12 2051.24C1562.47 2053.26 1568.85 2055.22 1575.25 2057.12L1577.24 2050.41ZM1539.34 2038.36C1533.05 2036.22 1526.8 2034.03 1520.57 2031.78L1518.19 2038.36C1524.46 2040.63 1530.76 2042.84 1537.09 2044.99L1539.34 2038.36ZM1501.93 2024.84C1495.73 2022.47 1489.56 2020.03 1483.42 2017.54L1480.79 2024.02C1486.97 2026.53 1493.19 2028.99 1499.43 2031.38L1501.93 2024.84ZM1465.08 2009.89C1458.98 2007.27 1452.9 2004.6 1446.86 2001.87L1443.98 2008.25C1450.06 2010.99 1456.18 2013.69 1462.32 2016.32L1465.08 2009.89ZM1428.83 1993.51C1422.83 1990.66 1416.87 1987.75 1410.94 1984.79L1407.81 1991.05C1413.78 1994.03 1419.79 1996.96 1425.83 1999.83L1428.83 1993.51ZM1393.24 1975.74C1387.36 1972.66 1381.51 1969.52 1375.7 1966.34L1372.33 1972.47C1378.19 1975.68 1384.07 1978.84 1389.99 1981.94L1393.24 1975.74ZM1358.36 1956.6C1352.6 1953.3 1346.89 1949.94 1341.2 1946.53L1337.6 1952.54C1343.32 1955.97 1349.08 1959.35 1354.87 1962.67L1358.36 1956.6ZM1324.24 1936.14C1318.62 1932.62 1313.04 1929.04 1307.49 1925.42L1303.67 1931.28C1309.25 1934.93 1314.87 1938.52 1320.53 1942.07L1324.24 1936.14ZM1290.95 1914.37C1285.47 1910.64 1280.03 1906.85 1274.62 1903.02L1270.57 1908.73C1276.01 1912.59 1281.49 1916.4 1287 1920.16L1290.95 1914.37ZM1258.51 1891.34C1253.18 1887.4 1247.89 1883.41 1242.63 1879.37L1238.36 1884.92C1243.65 1888.99 1248.98 1893.01 1254.35 1896.97L1258.51 1891.34ZM1226.98 1867.09C1221.81 1862.94 1216.67 1858.75 1211.57 1854.51L1207.1 1859.89C1212.23 1864.16 1217.4 1868.38 1222.61 1872.55L1226.98 1867.09ZM1196.41 1841.64C1191.39 1837.3 1186.42 1832.91 1181.49 1828.48L1176.81 1833.68C1181.77 1838.15 1186.78 1842.56 1191.83 1846.93L1196.41 1841.64ZM1166.83 1815.04C1161.99 1810.51 1157.19 1805.93 1152.43 1801.31L1147.56 1806.33C1152.34 1810.99 1157.18 1815.59 1162.05 1820.15L1166.83 1815.04ZM1138.3 1787.32C1133.63 1782.61 1129.01 1777.85 1124.43 1773.06L1119.37 1777.89C1123.97 1782.72 1128.63 1787.5 1133.33 1792.25L1138.3 1787.32ZM1110.85 1758.53C1106.36 1753.64 1101.93 1748.72 1097.54 1743.74L1092.29 1748.38C1096.71 1753.38 1101.18 1758.34 1105.69 1763.26L1110.85 1758.53ZM1084.52 1728.71C1080.23 1723.65 1075.98 1718.56 1071.79 1713.43L1066.37 1717.85C1070.59 1723.02 1074.86 1728.15 1079.18 1733.24L1084.52 1728.71ZM1059.35 1697.9C1055.26 1692.69 1051.21 1687.43 1047.22 1682.14L1041.63 1686.36C1045.65 1691.69 1049.72 1696.97 1053.85 1702.22L1059.35 1697.9ZM1035.39 1666.15C1031.5 1660.78 1027.65 1655.38 1023.86 1649.93L1018.12 1653.93C1021.93 1659.41 1025.8 1664.86 1029.72 1670.26L1035.39 1666.15ZM1012.66 1633.5C1008.98 1627.99 1005.35 1622.44 1001.77 1616.85L995.873 1620.63C999.476 1626.25 1003.13 1631.84 1006.84 1637.39L1012.66 1633.5ZM991.207 1600C987.739 1594.35 984.324 1588.67 980.963 1582.94L974.927 1586.49C978.311 1592.25 981.749 1597.98 985.24 1603.67L991.207 1600ZM971.06 1565.71C967.814 1559.93 964.622 1554.11 961.484 1548.26L955.316 1551.57C958.475 1557.46 961.689 1563.31 964.957 1569.13L971.06 1565.71ZM952.253 1530.65C949.234 1524.75 946.269 1518.82 943.361 1512.86L937.069 1515.93C939.997 1521.93 942.982 1527.9 946.022 1533.84L952.253 1530.65ZM934.815 1494.9C932.027 1488.89 929.296 1482.85 926.621 1476.78L920.215 1479.6C922.908 1485.71 925.658 1491.79 928.465 1497.84L934.815 1494.9ZM918.774 1458.49C916.223 1452.38 913.729 1446.24 911.292 1440.07L904.782 1442.65C907.235 1448.86 909.746 1455.04 912.314 1461.19L918.774 1458.49ZM904.157 1421.48C901.846 1415.29 899.594 1409.06 897.399 1402.8L890.794 1405.12C893.003 1411.42 895.271 1417.69 897.598 1423.93L904.157 1421.48ZM890.994 1383.96C888.925 1377.67 886.914 1371.36 884.964 1365.02L878.273 1367.07C880.237 1373.46 882.261 1379.81 884.345 1386.14L890.994 1383.96ZM879.298 1345.95C877.474 1339.58 875.709 1333.19 874.005 1326.77L867.239 1328.57C868.955 1335.03 870.732 1341.46 872.569 1347.87L879.298 1345.95ZM869.088 1307.51C867.51 1301.07 865.994 1294.61 864.538 1288.12L857.708 1289.65C859.174 1296.18 860.701 1302.69 862.289 1309.17L869.088 1307.51ZM860.376 1268.7C859.05 1262.2 857.784 1255.68 856.58 1249.14L849.696 1250.41C850.908 1257 852.182 1263.56 853.518 1270.1L860.376 1268.7ZM853.174 1229.58C852.101 1223.04 851.09 1216.48 850.14 1209.91L843.212 1210.91C844.168 1217.53 845.186 1224.13 846.267 1230.71L853.174 1229.58ZM847.489 1190.2C846.67 1183.63 845.913 1177.05 845.218 1170.45L838.256 1171.18C838.956 1177.83 839.718 1184.46 840.543 1191.07L847.489 1190.2ZM843.324 1150.62C842.758 1144.04 842.255 1137.44 841.814 1130.82L834.83 1131.29C835.274 1137.95 835.78 1144.59 836.349 1151.22L843.324 1150.62ZM840.679 1110.92C840.366 1104.32 840.115 1097.71 839.927 1091.08L832.929 1091.28C833.119 1097.96 833.372 1104.61 833.687 1111.25L840.679 1110.92ZM839.549 1071.18C839.518 1067.86 839.502 1064.53 839.502 1061.2H832.502C832.502 1064.55 832.518 1067.9 832.55 1071.25L839.549 1071.18ZM839.502 1061.2C839.502 1057.88 839.518 1054.57 839.549 1051.27L832.549 1051.2C832.518 1054.53 832.502 1057.86 832.502 1061.2H839.502ZM839.922 1031.47C840.108 1024.89 840.356 1018.33 840.665 1011.78L833.672 1011.45C833.361 1018.04 833.112 1024.65 832.925 1031.28L839.922 1031.47ZM841.785 992.004C842.221 985.417 842.719 978.847 843.279 972.294L836.304 971.699C835.741 978.296 835.24 984.91 834.801 991.542L841.785 992.004ZM845.143 952.66C845.83 946.081 846.58 939.52 847.391 932.978L840.444 932.117C839.628 938.703 838.873 945.308 838.181 951.932L845.143 952.66ZM850.007 913.409C850.944 906.877 851.942 900.365 853.001 893.873L846.092 892.746C845.026 899.282 844.021 905.839 843.078 912.415L850.007 913.409ZM856.372 874.38C857.557 867.904 858.802 861.448 860.107 855.014L853.247 853.623C851.933 860.101 850.679 866.6 849.487 873.121L856.372 874.38ZM864.23 835.649C865.665 829.212 867.161 822.797 868.716 816.406L861.914 814.751C860.349 821.186 858.843 827.644 857.397 834.125L864.23 835.649ZM873.57 797.264C875.254 790.879 876.999 784.518 878.802 778.182L872.07 776.265C870.254 782.645 868.498 789.049 866.801 795.478L873.57 797.264ZM884.389 759.249C886.318 752.936 888.306 746.65 890.352 740.39L883.699 738.215C881.639 744.518 879.637 750.847 877.695 757.203L884.389 759.249ZM896.675 721.662C898.842 715.441 901.067 709.247 903.35 703.08L896.785 700.65C894.487 706.859 892.246 713.095 890.064 719.359L896.675 721.662ZM910.397 684.592C912.803 678.458 915.266 672.352 917.786 666.276L911.32 663.594C908.783 669.712 906.303 675.86 903.88 682.036L910.397 684.592ZM925.535 648.088C928.178 642.046 930.877 636.034 933.632 630.053L927.274 627.125C924.501 633.146 921.783 639.199 919.122 645.282L925.535 648.088ZM942.066 612.198C944.941 606.259 947.872 600.352 950.857 594.477L944.616 591.306C941.611 597.221 938.66 603.168 935.765 609.148L942.066 612.198ZM959.975 576.95C963.074 571.131 966.227 565.346 969.433 559.594L963.319 556.186C960.091 561.977 956.917 567.802 953.797 573.66L959.975 576.95ZM979.224 542.42C982.541 536.729 985.911 531.072 989.333 525.451L983.354 521.811C979.909 527.47 976.516 533.165 973.176 538.895L979.224 542.42ZM999.779 508.658C1003.31 503.096 1006.9 497.57 1010.54 492.081L1004.7 488.215C1001.04 493.741 997.429 499.304 993.871 504.904L999.779 508.658ZM1021.61 475.71C1025.36 470.286 1029.15 464.899 1033 459.551L1027.31 455.464C1023.44 460.849 1019.62 466.272 1015.85 471.733L1021.61 475.71ZM1044.68 443.621C1048.63 438.343 1052.63 433.104 1056.68 427.905L1051.16 423.605C1047.08 428.839 1043.06 434.113 1039.08 439.427L1044.68 443.621ZM1068.97 412.428C1073.12 407.306 1077.31 402.226 1081.55 397.186L1076.2 392.678C1071.93 397.752 1067.71 402.867 1063.53 408.023L1068.97 412.428ZM1094.43 382.186C1098.77 377.227 1103.15 372.311 1107.58 367.437L1102.4 362.728C1097.94 367.635 1093.53 372.585 1089.16 377.577L1094.43 382.186ZM1121.02 352.937C1125.54 348.147 1130.11 343.4 1134.72 338.698L1129.73 333.795C1125.08 338.53 1120.48 343.308 1115.93 348.131L1121.02 352.937ZM1148.7 324.722C1153.4 320.108 1158.15 315.538 1162.94 311.014L1158.13 305.925C1153.31 310.48 1148.53 315.08 1143.8 319.725L1148.7 324.722ZM1177.44 297.579C1182.31 293.148 1187.23 288.763 1192.19 284.425L1187.58 279.157C1182.59 283.524 1177.64 287.939 1172.73 292.399L1177.44 297.579ZM1207.19 271.552C1212.23 267.31 1217.31 263.115 1222.43 258.969L1218.03 253.529C1212.87 257.703 1207.75 261.926 1202.68 266.197L1207.19 271.552ZM1237.91 246.679C1243.11 242.631 1248.35 238.631 1253.62 234.681L1249.43 229.077C1244.12 233.054 1238.84 237.08 1233.61 241.156L1237.91 246.679ZM1269.55 222.994C1274.9 219.149 1280.29 215.353 1285.71 211.608L1281.74 205.847C1276.27 209.618 1270.85 213.439 1265.47 217.311L1269.55 222.994ZM1302.08 200.534C1307.57 196.897 1313.1 193.311 1318.66 189.777L1314.91 183.869C1309.31 187.427 1303.74 191.037 1298.22 194.698L1302.08 200.534ZM1335.45 179.331C1341.07 175.909 1346.73 172.539 1352.42 169.222L1348.9 163.174C1343.17 166.514 1337.47 169.907 1331.81 173.352L1335.45 179.331ZM1369.6 159.431C1375.35 156.225 1381.13 153.072 1386.95 149.973L1383.66 143.795C1377.8 146.914 1371.98 150.089 1366.19 153.317L1369.6 159.431ZM1404.48 140.854C1410.35 137.869 1416.26 134.939 1422.2 132.063L1419.15 125.763C1413.17 128.658 1407.22 131.608 1401.31 134.614L1404.48 140.854ZM1440.06 123.63C1446.04 120.875 1452.05 118.176 1458.09 115.533L1455.28 109.119C1449.2 111.781 1443.15 114.498 1437.13 117.272L1440.06 123.63ZM1476.28 107.784C1482.35 105.264 1488.46 102.801 1494.59 100.395L1492.04 93.8781C1485.86 96.3008 1479.71 98.781 1473.6 101.318L1476.28 107.784ZM1513.08 93.3475C1519.25 91.0651 1525.44 88.8399 1531.66 86.6726L1529.36 80.0622C1523.1 82.2443 1516.86 84.4848 1510.65 86.7828L1513.08 93.3475ZM1550.39 80.3504C1556.65 78.3042 1562.94 76.3162 1569.25 74.3872L1567.21 67.6928C1560.85 69.6351 1554.52 71.6366 1548.22 73.6968L1550.39 80.3504ZM1588.18 68.8003C1594.52 66.9968 1600.88 65.2523 1607.27 63.5676L1605.48 56.7992C1599.05 58.4955 1592.65 60.2519 1586.27 62.0677L1588.18 68.8003ZM1626.41 58.7138C1632.8 57.1586 1639.21 55.663 1645.65 54.2275L1644.13 47.3953C1637.65 48.8406 1631.19 50.3465 1624.75 51.9122L1626.41 58.7138ZM1665.02 50.1048C1671.45 48.7999 1677.91 47.5549 1684.38 46.3703L1683.12 39.4845C1676.6 40.6772 1670.1 41.9307 1663.63 43.2445L1665.02 50.1048ZM1703.88 42.9987C1710.37 41.94 1716.88 40.9418 1723.41 40.0049L1722.42 33.0758C1715.84 34.0191 1709.28 35.024 1702.75 36.0899L1703.88 42.9987ZM1742.98 37.389C1749.52 36.5781 1756.08 35.8284 1762.66 35.1406L1761.93 28.1785C1755.31 28.871 1748.71 29.6258 1742.12 30.4422L1742.98 37.389ZM1782.3 33.2767C1788.85 32.7175 1795.42 32.2195 1802.01 31.7833L1801.54 24.7986C1794.91 25.2377 1788.3 25.739 1781.7 26.3021L1782.3 33.2767ZM1821.78 30.6627C1828.33 30.3538 1834.9 30.106 1841.48 29.9198L1841.28 22.9226C1834.65 23.11 1828.04 23.3595 1821.45 23.6705L1821.78 30.6627ZM1861.27 29.5468C1864.57 29.5156 1867.88 29.5 1871.2 29.5V22.5C1867.86 22.5 1864.53 22.5157 1861.2 22.5471L1861.27 29.5468Z" fill="black"/>
<path d="M9865.57 1704.14C9864.21 1705.51 9864.21 1707.73 9865.57 1709.09L9887.85 1731.37C9889.21 1732.73 9891.43 1732.73 9892.8 1731.37C9894.16 1730 9894.16 1727.78 9892.8 1726.42L9873 1706.62L9892.8 1686.82C9894.16 1685.45 9894.16 1683.24 9892.8 1681.87C9891.43 1680.5 9889.21 1680.5 9887.85 1681.87L9865.57 1704.14ZM9987.3 402.151C9990.56 402.749 9993.81 403.371 9997.04 404.017L9998.41 397.152C9995.14 396.499 9991.86 395.87 9988.57 395.266L9987.3 402.151ZM10016.4 408.177C10022.8 409.668 10029.2 411.253 10035.6 412.932L10037.4 406.163C10030.9 404.466 10024.5 402.864 10018 401.357L10016.4 408.177ZM10054.7 418.265C10061 420.141 10067.3 422.11 10073.5 424.171L10075.7 417.522C10069.4 415.44 10063.1 413.449 10056.7 411.553L10054.7 418.265ZM10092.2 430.654C10098.5 432.912 10104.6 435.262 10110.7 437.702L10113.3 431.199C10107.1 428.734 10100.9 426.358 10094.6 424.075L10092.2 430.654ZM10129 445.305C10135.1 447.935 10141.1 450.654 10147 453.46L10150 447.127C10144 444.291 10137.9 441.542 10131.8 438.884L10129 445.305ZM10164.8 462.162C10170.7 465.154 10176.5 468.232 10182.3 471.395L10185.7 465.254C10179.8 462.057 10173.9 458.946 10168 455.922L10164.8 462.162ZM10199.5 481.151C10205.2 484.494 10210.9 487.92 10216.5 491.428L10220.2 485.501C10214.5 481.955 10208.8 478.492 10203.1 475.114L10199.5 481.151ZM10233.1 502.208C10238.5 505.886 10244 509.645 10249.3 513.482L10253.4 507.789C10248 503.911 10242.5 500.113 10237 496.396L10233.1 502.208ZM10265.3 525.242C10270.5 529.243 10275.7 533.321 10280.8 537.475L10285.2 532.038C10280 527.839 10274.8 523.718 10269.5 519.674L10265.3 525.242ZM10296 550.169C10301 554.476 10305.9 558.858 10310.8 563.313L10315.5 558.15C10310.6 553.648 10305.6 549.219 10300.6 544.866L10296 550.169ZM10325.2 576.895C10329.9 581.494 10334.6 586.164 10339.2 590.903L10344.2 586.032C10339.6 581.243 10334.9 576.524 10330.1 571.876L10325.2 576.895ZM10352.7 605.324C10357.2 610.198 10361.6 615.139 10365.9 620.145L10371.2 615.585C10366.8 610.525 10362.4 605.532 10357.9 600.607L10352.7 605.324ZM10378.5 635.352C10382.7 640.483 10386.7 645.677 10390.7 650.934L10396.3 646.701C10392.3 641.388 10388.2 636.138 10384 630.953L10378.5 635.352ZM10402.5 666.876C10406.3 672.245 10410 677.673 10413.7 683.16L10419.5 679.27C10415.8 673.724 10412 668.238 10408.2 662.812L10402.5 666.876ZM10424.5 699.779C10428 705.369 10431.4 711.016 10434.7 716.718L10440.7 713.186C10437.4 707.423 10433.9 701.715 10430.4 696.065L10424.5 699.779ZM10444.4 733.949C10447.6 739.737 10450.6 745.577 10453.6 751.469L10459.9 748.308C10456.9 742.353 10453.8 736.45 10450.6 730.6L10444.4 733.949ZM10462.3 769.267C10465.1 775.233 10467.8 781.249 10470.4 787.312L10476.8 784.536C10474.2 778.408 10471.5 772.327 10468.6 766.297L10462.3 769.267ZM10478 805.592C10480.4 811.717 10482.8 817.888 10485 824.103L10491.6 821.722C10489.3 815.44 10487 809.203 10484.5 803.012L10478 805.592ZM10491.5 842.819C10493.5 849.074 10495.5 855.371 10497.3 861.707L10504 859.731C10502.2 853.326 10500.2 846.962 10498.1 840.639L10491.5 842.819ZM10502.6 880.778C10504.3 887.152 10505.9 893.565 10507.4 900.013L10514.2 898.448C10512.7 891.931 10511.1 885.449 10509.4 879.006L10502.6 880.778ZM10511.5 919.351C10512.8 925.808 10513.9 932.299 10515 938.822L10521.9 937.674C10520.8 931.081 10519.6 924.52 10518.3 917.994L10511.5 919.351ZM10518 958.417C10518.9 964.929 10519.6 971.471 10520.3 978.043L10527.3 977.313C10526.6 970.672 10525.8 964.06 10524.9 957.478L10518 958.417ZM10522.1 997.754C10522.6 1004.32 10523 1010.92 10523.3 1017.54L10530.3 1017.23C10530 1010.54 10529.6 1003.87 10529.1 997.233L10522.1 997.754ZM10523.9 1037.3C10523.9 1040.6 10523.9 1043.91 10523.9 1047.23H10530.9C10530.9 1043.88 10530.9 1040.53 10530.9 1037.19L10523.9 1037.3ZM10523.9 1047.23C10523.9 1050.55 10523.9 1053.86 10523.9 1057.17L10530.9 1057.28C10530.9 1053.93 10530.9 1050.58 10530.9 1047.23H10523.9ZM10523.3 1076.96C10523 1083.59 10522.6 1090.19 10522.1 1096.77L10529.1 1097.29C10529.6 1090.64 10530 1083.97 10530.3 1077.27L10523.3 1076.96ZM10520.3 1116.47C10519.6 1123.07 10518.8 1129.63 10518 1136.17L10524.9 1137.11C10525.8 1130.5 10526.6 1123.87 10527.3 1117.2L10520.3 1116.47ZM10515 1155.75C10513.9 1162.28 10512.7 1168.77 10511.5 1175.24L10518.3 1176.59C10519.6 1170.06 10520.8 1163.5 10521.9 1156.9L10515 1155.75ZM10507.3 1194.63C10505.8 1201.07 10504.3 1207.48 10502.6 1213.85L10509.4 1215.62C10511 1209.18 10512.6 1202.71 10514.1 1196.19L10507.3 1194.63ZM10497.3 1232.95C10495.4 1239.3 10493.4 1245.6 10491.4 1251.87L10498 1254.05C10500.1 1247.72 10502.1 1241.34 10504 1234.93L10497.3 1232.95ZM10484.9 1270.58C10482.7 1276.81 10480.3 1282.99 10477.9 1289.12L10484.4 1291.7C10486.9 1285.5 10489.2 1279.26 10491.5 1272.97L10484.9 1270.58ZM10470.3 1307.42C10467.7 1313.48 10465 1319.51 10462.2 1325.48L10468.5 1328.45C10471.3 1322.42 10474.1 1316.33 10476.7 1310.19L10470.3 1307.42ZM10453.5 1343.29C10450.5 1349.19 10447.4 1355.03 10444.3 1360.82L10450.4 1364.17C10453.6 1358.32 10456.7 1352.41 10459.7 1346.46L10453.5 1343.29ZM10434.5 1378.08C10431.2 1383.78 10427.7 1389.43 10424.2 1395.02L10430.2 1398.74C10433.7 1393.09 10437.2 1387.38 10440.5 1381.61L10434.5 1378.08ZM10413.5 1411.65C10409.8 1417.14 10406 1422.57 10402.2 1427.95L10407.9 1432.02C10411.8 1426.58 10415.6 1421.09 10419.3 1415.54L10413.5 1411.65ZM10390.4 1443.9C10386.4 1449.16 10382.4 1454.35 10378.2 1459.49L10383.6 1463.89C10387.8 1458.7 10392 1453.45 10396 1448.13L10390.4 1443.9ZM10365.5 1474.7C10361.2 1479.71 10356.8 1484.65 10352.4 1489.53L10357.5 1494.25C10362 1489.32 10366.5 1484.33 10370.8 1479.27L10365.5 1474.7ZM10338.8 1503.95C10334.2 1508.69 10329.5 1513.36 10324.8 1517.96L10329.6 1522.99C10334.4 1518.34 10339.2 1513.62 10343.8 1508.83L10338.8 1503.95ZM10310.3 1531.55C10305.5 1536 10300.5 1540.39 10295.5 1544.69L10300.1 1550C10305.1 1545.65 10310.1 1541.22 10315.1 1536.72L10310.3 1531.55ZM10280.3 1557.39C10275.2 1561.54 10270 1565.62 10264.7 1569.62L10269 1575.19C10274.3 1571.15 10279.5 1567.03 10284.7 1562.83L10280.3 1557.39ZM10248.8 1581.37C10243.4 1585.21 10238 1588.97 10232.5 1592.64L10236.4 1598.46C10241.9 1594.74 10247.4 1590.95 10252.8 1587.07L10248.8 1581.37ZM10215.8 1603.42C10210.2 1606.92 10204.6 1610.34 10198.9 1613.68L10202.4 1619.72C10208.2 1616.35 10213.9 1612.89 10219.6 1609.35L10215.8 1603.42ZM10181.6 1623.44C10175.8 1626.59 10170 1629.67 10164.1 1632.65L10167.3 1638.9C10173.2 1635.88 10179.1 1632.77 10185 1629.58L10181.6 1623.44ZM10146.3 1641.34C10140.3 1644.14 10134.3 1646.86 10128.2 1649.48L10131 1655.91C10137.1 1653.26 10143.2 1650.51 10149.3 1647.68L10146.3 1641.34ZM10109.9 1657.07C10103.8 1659.51 10097.6 1661.85 10091.4 1664.11L10093.8 1670.69C10100.1 1668.41 10106.3 1666.04 10112.5 1663.58L10109.9 1657.07ZM10072.7 1670.56C10066.4 1672.62 10060.1 1674.58 10053.8 1676.45L10055.7 1683.17C10062.2 1681.28 10068.5 1679.29 10074.9 1677.22L10072.7 1670.56ZM10034.7 1681.77C10028.3 1683.44 10021.9 1685.01 10015.4 1686.49L10017 1693.31C10023.5 1691.82 10030 1690.22 10036.4 1688.54L10034.7 1681.77ZM9996.06 1690.63C9989.59 1691.91 9983.1 1693.09 9976.57 1694.18L9977.72 1701.09C9984.32 1699.99 9990.88 1698.79 9997.41 1697.5L9996.06 1690.63ZM9956.99 1697.14C9950.45 1698.02 9943.89 1698.81 9937.29 1699.51L9938.02 1706.47C9944.69 1705.77 9951.32 1704.97 9957.93 1704.07L9956.99 1697.14ZM9917.59 1701.27C9911.01 1701.77 9904.41 1702.16 9897.78 1702.46L9898.09 1709.45C9904.79 1709.15 9911.46 1708.75 9918.11 1708.26L9917.59 1701.27ZM9877.99 1703.04C9874.68 1703.09 9871.37 1703.12 9868.05 1703.12V1710.12C9871.4 1710.12 9874.75 1710.09 9878.1 1710.04L9877.99 1703.04Z" fill="black"/>
<path d="M2773.91 1110.08C2773.72 1105.86 2772.34 1102.37 2769.78 1099.62C2767.29 1096.8 2763.7 1095.39 2759.03 1095.39C2756.86 1095.39 2754.84 1095.81 2752.98 1096.64C2751.13 1097.41 2749.5 1098.5 2748.09 1099.9C2746.68 1101.25 2745.56 1102.82 2744.73 1104.61C2743.9 1106.34 2743.42 1108.16 2743.29 1110.08H2773.91ZM2780.54 1112.19C2780.54 1112.64 2780.54 1113.12 2780.54 1113.63C2780.54 1114.14 2780.5 1114.69 2780.44 1115.26H2743.19C2743.26 1117.5 2743.7 1119.62 2744.54 1121.6C2745.37 1123.58 2746.52 1125.31 2747.99 1126.78C2749.46 1128.26 2751.19 1129.44 2753.18 1130.34C2755.16 1131.17 2757.3 1131.58 2759.61 1131.58C2763 1131.58 2765.91 1130.82 2768.34 1129.28C2770.84 1127.68 2772.73 1125.86 2774.01 1123.81L2778.9 1127.65C2776.22 1131.04 2773.24 1133.47 2769.98 1134.94C2766.78 1136.42 2763.32 1137.15 2759.61 1137.15C2756.28 1137.15 2753.18 1136.58 2750.3 1135.42C2747.48 1134.21 2745.05 1132.54 2743 1130.43C2740.95 1128.32 2739.32 1125.82 2738.1 1122.94C2736.95 1120.06 2736.38 1116.93 2736.38 1113.54C2736.38 1110.14 2736.95 1107.01 2738.1 1104.13C2739.26 1101.25 2740.86 1098.75 2742.9 1096.64C2744.95 1094.53 2747.35 1092.9 2750.1 1091.74C2752.86 1090.53 2755.83 1089.92 2759.03 1089.92C2762.55 1089.92 2765.66 1090.53 2768.34 1091.74C2771.03 1092.9 2773.27 1094.5 2775.06 1096.54C2776.86 1098.53 2778.2 1100.86 2779.1 1103.55C2780.06 1106.24 2780.54 1109.12 2780.54 1112.19ZM2804.58 1112.77L2787.97 1091.07H2796.32L2808.61 1108.16L2820.9 1091.07H2828.77L2812.45 1112.48L2830.3 1136H2821.86L2808.51 1117.28L2794.78 1136H2786.91L2804.58 1112.77ZM2847.04 1159.04H2840.52V1091.07H2847.04V1098.85H2847.33C2849.19 1095.9 2851.65 1093.7 2854.72 1092.22C2857.86 1090.69 2861.03 1089.92 2864.23 1089.92C2867.75 1089.92 2870.92 1090.53 2873.73 1091.74C2876.61 1092.96 2879.04 1094.62 2881.03 1096.74C2883.08 1098.85 2884.64 1101.34 2885.73 1104.22C2886.88 1107.1 2887.46 1110.21 2887.46 1113.54C2887.46 1116.86 2886.88 1119.97 2885.73 1122.85C2884.64 1125.73 2883.08 1128.22 2881.03 1130.34C2879.04 1132.45 2876.61 1134.11 2873.73 1135.33C2870.92 1136.54 2867.75 1137.15 2864.23 1137.15C2861.03 1137.15 2857.86 1136.42 2854.72 1134.94C2851.65 1133.41 2849.19 1131.23 2847.33 1128.42H2847.04V1159.04ZM2880.55 1113.54C2880.55 1111.04 2880.16 1108.7 2879.4 1106.53C2878.63 1104.29 2877.51 1102.37 2876.04 1100.77C2874.63 1099.1 2872.87 1097.79 2870.76 1096.83C2868.64 1095.87 2866.24 1095.39 2863.56 1095.39C2861.06 1095.39 2858.76 1095.87 2856.64 1096.83C2854.53 1097.73 2852.71 1099.01 2851.17 1100.67C2849.64 1102.27 2848.42 1104.19 2847.52 1106.43C2846.69 1108.61 2846.28 1110.98 2846.28 1113.54C2846.28 1116.1 2846.69 1118.5 2847.52 1120.74C2848.42 1122.91 2849.64 1124.8 2851.17 1126.4C2852.71 1128 2854.53 1129.28 2856.64 1130.24C2858.76 1131.14 2861.06 1131.58 2863.56 1131.58C2866.24 1131.58 2868.64 1131.14 2870.76 1130.24C2872.87 1129.28 2874.63 1128 2876.04 1126.4C2877.51 1124.74 2878.63 1122.82 2879.4 1120.64C2880.16 1118.4 2880.55 1116.03 2880.55 1113.54ZM2908.17 1136H2901.65V1063.42H2908.17V1136ZM2970.28 1113.54C2970.28 1116.93 2969.67 1120.06 2968.46 1122.94C2967.3 1125.82 2965.67 1128.32 2963.56 1130.43C2961.45 1132.54 2958.92 1134.21 2955.98 1135.42C2953.03 1136.58 2949.8 1137.15 2946.28 1137.15C2942.82 1137.15 2939.62 1136.58 2936.68 1135.42C2933.74 1134.21 2931.21 1132.54 2929.1 1130.43C2926.98 1128.32 2925.32 1125.82 2924.1 1122.94C2922.95 1120.06 2922.38 1116.93 2922.38 1113.54C2922.38 1110.14 2922.95 1107.01 2924.1 1104.13C2925.32 1101.25 2926.98 1098.75 2929.1 1096.64C2931.21 1094.53 2933.74 1092.9 2936.68 1091.74C2939.62 1090.53 2942.82 1089.92 2946.28 1089.92C2949.8 1089.92 2953.03 1090.53 2955.98 1091.74C2958.92 1092.9 2961.45 1094.53 2963.56 1096.64C2965.67 1098.75 2967.3 1101.25 2968.46 1104.13C2969.67 1107.01 2970.28 1110.14 2970.28 1113.54ZM2963.37 1113.54C2963.37 1111.04 2962.95 1108.7 2962.12 1106.53C2961.35 1104.29 2960.23 1102.37 2958.76 1100.77C2957.29 1099.1 2955.5 1097.79 2953.38 1096.83C2951.27 1095.87 2948.9 1095.39 2946.28 1095.39C2943.66 1095.39 2941.29 1095.87 2939.18 1096.83C2937.13 1097.79 2935.37 1099.1 2933.9 1100.77C2932.42 1102.37 2931.27 1104.29 2930.44 1106.53C2929.67 1108.7 2929.29 1111.04 2929.29 1113.54C2929.29 1116.03 2929.67 1118.4 2930.44 1120.64C2931.27 1122.82 2932.42 1124.74 2933.9 1126.4C2935.37 1128 2937.13 1129.28 2939.18 1130.24C2941.29 1131.14 2943.66 1131.58 2946.28 1131.58C2948.9 1131.58 2951.27 1131.14 2953.38 1130.24C2955.5 1129.28 2957.29 1128 2958.76 1126.4C2960.23 1124.74 2961.35 1122.82 2962.12 1120.64C2962.95 1118.4 2963.37 1116.03 2963.37 1113.54ZM2984.33 1100.96C2984.33 1099.74 2984.3 1098.18 2984.23 1096.26C2984.17 1094.34 2984.07 1092.61 2983.94 1091.07H2990.18C2990.31 1092.29 2990.41 1093.63 2990.47 1095.1C2990.54 1096.58 2990.57 1097.79 2990.57 1098.75H2990.76C2992.04 1096.13 2993.96 1094.02 2996.52 1092.42C2999.08 1090.75 3001.96 1089.92 3005.16 1089.92C3005.99 1089.92 3006.73 1089.95 3007.37 1090.02C3008.07 1090.08 3008.78 1090.21 3009.48 1090.4L3008.62 1096.54C3008.23 1096.42 3007.59 1096.29 3006.7 1096.16C3005.8 1096.03 3004.9 1095.97 3004.01 1095.97C3002.28 1095.97 3000.62 1096.29 2999.02 1096.93C2997.42 1097.57 2996.01 1098.59 2994.79 1100C2993.64 1101.34 2992.68 1103.1 2991.91 1105.28C2991.21 1107.39 2990.86 1109.95 2990.86 1112.96V1136H2984.33V1100.96ZM3046.12 1107.01C3046.12 1103.1 3045.09 1100.19 3043.05 1098.27C3041 1096.35 3038.02 1095.39 3034.12 1095.39C3031.43 1095.39 3028.93 1095.87 3026.63 1096.83C3024.33 1097.79 3022.37 1099.07 3020.77 1100.67L3017.13 1096.35C3018.98 1094.5 3021.41 1092.96 3024.42 1091.74C3027.49 1090.53 3030.95 1089.92 3034.79 1089.92C3037.22 1089.92 3039.49 1090.27 3041.61 1090.98C3043.72 1091.62 3045.57 1092.61 3047.17 1093.95C3048.77 1095.3 3050.02 1096.99 3050.92 1099.04C3051.81 1101.09 3052.26 1103.49 3052.26 1106.24V1125.92C3052.26 1127.65 3052.33 1129.44 3052.45 1131.3C3052.58 1133.15 3052.77 1134.72 3053.03 1136H3047.17C3046.98 1134.91 3046.82 1133.73 3046.69 1132.45C3046.57 1131.17 3046.5 1129.92 3046.5 1128.7H3046.31C3044.26 1131.71 3041.93 1133.89 3039.3 1135.23C3036.74 1136.51 3033.64 1137.15 3029.99 1137.15C3028.26 1137.15 3026.47 1136.9 3024.61 1136.38C3022.82 1135.94 3021.16 1135.17 3019.62 1134.08C3018.15 1132.99 3016.9 1131.58 3015.88 1129.86C3014.92 1128.13 3014.44 1126.02 3014.44 1123.52C3014.44 1120.06 3015.3 1117.34 3017.03 1115.36C3018.82 1113.31 3021.19 1111.81 3024.13 1110.85C3027.08 1109.82 3030.44 1109.18 3034.21 1108.93C3038.05 1108.61 3042.02 1108.45 3046.12 1108.45V1107.01ZM3044.2 1113.54C3041.51 1113.54 3038.79 1113.66 3036.04 1113.92C3033.35 1114.11 3030.89 1114.56 3028.65 1115.26C3026.47 1115.9 3024.68 1116.86 3023.27 1118.14C3021.86 1119.42 3021.16 1121.12 3021.16 1123.23C3021.16 1124.83 3021.45 1126.18 3022.02 1127.26C3022.66 1128.35 3023.49 1129.25 3024.52 1129.95C3025.54 1130.59 3026.66 1131.07 3027.88 1131.39C3029.16 1131.65 3030.44 1131.78 3031.72 1131.78C3034.02 1131.78 3036.07 1131.39 3037.86 1130.62C3039.65 1129.79 3041.16 1128.7 3042.37 1127.36C3043.59 1125.95 3044.52 1124.35 3045.16 1122.56C3045.8 1120.77 3046.12 1118.88 3046.12 1116.9V1113.54H3044.2ZM3088.4 1096.54H3075.72V1122.75C3075.72 1124.42 3075.88 1125.79 3076.2 1126.88C3076.52 1127.97 3076.97 1128.83 3077.55 1129.47C3078.19 1130.05 3078.92 1130.46 3079.76 1130.72C3080.59 1130.91 3081.48 1131.01 3082.44 1131.01C3083.34 1131.01 3084.27 1130.88 3085.23 1130.62C3086.25 1130.37 3087.21 1130.02 3088.11 1129.57L3088.4 1135.23C3087.24 1135.68 3086.03 1136 3084.75 1136.19C3083.53 1136.45 3082.19 1136.58 3080.72 1136.58C3079.5 1136.58 3078.22 1136.42 3076.88 1136.1C3075.53 1135.78 3074.28 1135.17 3073.13 1134.27C3071.98 1133.38 3071.02 1132.16 3070.25 1130.62C3069.55 1129.09 3069.2 1127.07 3069.2 1124.58V1096.54H3059.88V1091.07H3069.2V1078.4H3075.72V1091.07H3088.4V1096.54ZM3143.25 1113.54C3143.25 1116.93 3142.64 1120.06 3141.43 1122.94C3140.27 1125.82 3138.64 1128.32 3136.53 1130.43C3134.42 1132.54 3131.89 1134.21 3128.95 1135.42C3126 1136.58 3122.77 1137.15 3119.25 1137.15C3115.79 1137.15 3112.59 1136.58 3109.65 1135.42C3106.71 1134.21 3104.18 1132.54 3102.07 1130.43C3099.95 1128.32 3098.29 1125.82 3097.07 1122.94C3095.92 1120.06 3095.35 1116.93 3095.35 1113.54C3095.35 1110.14 3095.92 1107.01 3097.07 1104.13C3098.29 1101.25 3099.95 1098.75 3102.07 1096.64C3104.18 1094.53 3106.71 1092.9 3109.65 1091.74C3112.59 1090.53 3115.79 1089.92 3119.25 1089.92C3122.77 1089.92 3126 1090.53 3128.95 1091.74C3131.89 1092.9 3134.42 1094.53 3136.53 1096.64C3138.64 1098.75 3140.27 1101.25 3141.43 1104.13C3142.64 1107.01 3143.25 1110.14 3143.25 1113.54ZM3136.34 1113.54C3136.34 1111.04 3135.92 1108.7 3135.09 1106.53C3134.32 1104.29 3133.2 1102.37 3131.73 1100.77C3130.26 1099.1 3128.47 1097.79 3126.35 1096.83C3124.24 1095.87 3121.87 1095.39 3119.25 1095.39C3116.63 1095.39 3114.26 1095.87 3112.15 1096.83C3110.1 1097.79 3108.34 1099.1 3106.87 1100.77C3105.39 1102.37 3104.24 1104.29 3103.41 1106.53C3102.64 1108.7 3102.26 1111.04 3102.26 1113.54C3102.26 1116.03 3102.64 1118.4 3103.41 1120.64C3104.24 1122.82 3105.39 1124.74 3106.87 1126.4C3108.34 1128 3110.1 1129.28 3112.15 1130.24C3114.26 1131.14 3116.63 1131.58 3119.25 1131.58C3121.87 1131.58 3124.24 1131.14 3126.35 1130.24C3128.47 1129.28 3130.26 1128 3131.73 1126.4C3133.2 1124.74 3134.32 1122.82 3135.09 1120.64C3135.92 1118.4 3136.34 1116.03 3136.34 1113.54ZM3157.3 1100.96C3157.3 1099.74 3157.27 1098.18 3157.2 1096.26C3157.14 1094.34 3157.04 1092.61 3156.91 1091.07H3163.15C3163.28 1092.29 3163.38 1093.63 3163.44 1095.1C3163.51 1096.58 3163.54 1097.79 3163.54 1098.75H3163.73C3165.01 1096.13 3166.93 1094.02 3169.49 1092.42C3172.05 1090.75 3174.93 1089.92 3178.13 1089.92C3178.96 1089.92 3179.7 1089.95 3180.34 1090.02C3181.04 1090.08 3181.75 1090.21 3182.45 1090.4L3181.59 1096.54C3181.2 1096.42 3180.56 1096.29 3179.67 1096.16C3178.77 1096.03 3177.87 1095.97 3176.98 1095.97C3175.25 1095.97 3173.59 1096.29 3171.99 1096.93C3170.39 1097.57 3168.98 1098.59 3167.76 1100C3166.61 1101.34 3165.65 1103.1 3164.88 1105.28C3164.18 1107.39 3163.83 1109.95 3163.83 1112.96V1136H3157.3V1100.96ZM3207.35 1128.99H3207.54L3221.46 1091.07H3228.56L3206.19 1147.62C3204.85 1151.07 3203.12 1153.82 3201.01 1155.87C3198.96 1157.98 3195.99 1159.04 3192.08 1159.04C3190.1 1159.04 3188.15 1158.85 3186.23 1158.46L3186.9 1152.51C3188.43 1153.02 3190.03 1153.28 3191.7 1153.28C3193.94 1153.28 3195.7 1152.58 3196.98 1151.17C3198.26 1149.82 3199.38 1147.87 3200.34 1145.31L3203.99 1135.9L3184.79 1091.07H3192.08L3207.35 1128.99Z" fill="black"/>
<path d="M3371.53 1107.33C3370.16 1108.69 3370.16 1110.91 3371.53 1112.28L3393.84 1134.51C3395.21 1135.88 3397.43 1135.87 3398.79 1134.51C3400.16 1133.14 3400.15 1130.92 3398.78 1129.56L3378.95 1109.79L3398.72 1089.96C3400.09 1088.59 3400.08 1086.37 3398.71 1085.01C3397.34 1083.64 3395.13 1083.65 3393.76 1085.02L3371.53 1107.33ZM8118.48 1104.67C8119.84 1103.3 8119.84 1101.09 8118.47 1099.72L8096.16 1077.49C8094.79 1076.12 8092.57 1076.12 8091.21 1077.49C8089.84 1078.86 8089.85 1081.08 8091.22 1082.44L8111.05 1102.21L8091.28 1122.04C8089.92 1123.41 8089.92 1125.63 8091.29 1126.99C8092.66 1128.36 8094.87 1128.35 8096.24 1126.98L8118.48 1104.67ZM3374.01 1113.3L3383.97 1113.28L3383.96 1106.28L3374 1106.3L3374.01 1113.3ZM3403.9 1113.25L3423.82 1113.22L3423.81 1106.22L3403.88 1106.25L3403.9 1113.25ZM3443.74 1113.19L3463.67 1113.15L3463.66 1106.15L3443.73 1106.19L3443.74 1113.19ZM3483.59 1113.12L3503.52 1113.09L3503.51 1106.09L3483.58 1106.12L3483.59 1113.12ZM3523.44 1113.06L3543.37 1113.03L3543.36 1106.03L3523.43 1106.06L3523.44 1113.06ZM3563.29 1112.99L3583.22 1112.96L3583.2 1105.96L3563.28 1105.99L3563.29 1112.99ZM3603.14 1112.93L3623.06 1112.9L3623.05 1105.9L3603.13 1105.93L3603.14 1112.93ZM3642.99 1112.87L3662.91 1112.83L3662.9 1105.83L3642.98 1105.87L3642.99 1112.87ZM3682.84 1112.8L3702.76 1112.77L3702.75 1105.77L3682.83 1105.8L3682.84 1112.8ZM3722.69 1112.74L3742.61 1112.71L3742.6 1105.71L3722.67 1105.74L3722.69 1112.74ZM3762.53 1112.67L3782.46 1112.64L3782.45 1105.64L3762.52 1105.67L3762.53 1112.67ZM3802.38 1112.61L3822.31 1112.58L3822.3 1105.58L3802.37 1105.61L3802.38 1112.61ZM3842.23 1112.55L3862.16 1112.52L3862.14 1105.52L3842.22 1105.55L3842.23 1112.55ZM3882.08 1112.48L3902 1112.45L3901.99 1105.45L3882.07 1105.48L3882.08 1112.48ZM3921.93 1112.42L3941.85 1112.39L3941.84 1105.39L3921.92 1105.42L3921.93 1112.42ZM3961.78 1112.36L3981.7 1112.32L3981.69 1105.32L3961.77 1105.36L3961.78 1112.36ZM4001.63 1112.29L4021.55 1112.26L4021.54 1105.26L4001.62 1105.29L4001.63 1112.29ZM4041.48 1112.23L4061.4 1112.2L4061.39 1105.2L4041.46 1105.23L4041.48 1112.23ZM4081.32 1112.16L4101.25 1112.13L4101.24 1105.13L4081.31 1105.16L4081.32 1112.16ZM4121.17 1112.1L4141.1 1112.07L4141.09 1105.07L4121.16 1105.1L4121.17 1112.1ZM4161.02 1112.04L4180.95 1112L4180.93 1105L4161.01 1105.04L4161.02 1112.04ZM4200.87 1111.97L4220.79 1111.94L4220.78 1104.94L4200.86 1104.97L4200.87 1111.97ZM4240.72 1111.91L4260.64 1111.88L4260.63 1104.88L4240.71 1104.91L4240.72 1111.91ZM4280.57 1111.85L4300.49 1111.81L4300.48 1104.81L4280.56 1104.85L4280.57 1111.85ZM4320.42 1111.78L4340.34 1111.75L4340.33 1104.75L4320.4 1104.78L4320.42 1111.78ZM4360.26 1111.72L4380.19 1111.69L4380.18 1104.69L4360.25 1104.72L4360.26 1111.72ZM4400.11 1111.65L4420.04 1111.62L4420.03 1104.62L4400.1 1104.65L4400.11 1111.65ZM4439.96 1111.59L4459.89 1111.56L4459.88 1104.56L4439.95 1104.59L4439.96 1111.59ZM4479.81 1111.53L4499.73 1111.49L4499.72 1104.49L4479.8 1104.53L4479.81 1111.53ZM4519.66 1111.46L4539.58 1111.43L4539.57 1104.43L4519.65 1104.46L4519.66 1111.46ZM4559.51 1111.4L4579.43 1111.37L4579.42 1104.37L4559.5 1104.4L4559.51 1111.4ZM4599.36 1111.33L4619.28 1111.3L4619.27 1104.3L4599.35 1104.33L4599.36 1111.33ZM4639.2 1111.27L4659.13 1111.24L4659.12 1104.24L4639.19 1104.27L4639.2 1111.27ZM4679.05 1111.21L4698.98 1111.17L4698.97 1104.17L4679.04 1104.21L4679.05 1111.21ZM4718.9 1111.14L4738.83 1111.11L4738.82 1104.11L4718.89 1104.14L4718.9 1111.14ZM4758.75 1111.08L4778.68 1111.05L4778.66 1104.05L4758.74 1104.08L4758.75 1111.08ZM4798.6 1111.02L4818.52 1110.98L4818.51 1103.98L4798.59 1104.02L4798.6 1111.02ZM4838.45 1110.95L4858.37 1110.92L4858.36 1103.92L4838.44 1103.95L4838.45 1110.95ZM4878.3 1110.89L4898.22 1110.86L4898.21 1103.86L4878.29 1103.89L4878.3 1110.89ZM4918.14 1110.82L4938.07 1110.79L4938.06 1103.79L4918.13 1103.82L4918.14 1110.82ZM4957.99 1110.76L4977.92 1110.73L4977.91 1103.73L4957.98 1103.76L4957.99 1110.76ZM4997.84 1110.7L5017.77 1110.66L5017.76 1103.66L4997.83 1103.7L4997.84 1110.7ZM5037.69 1110.63L5057.62 1110.6L5057.6 1103.6L5037.68 1103.63L5037.69 1110.63ZM5077.54 1110.57L5097.46 1110.54L5097.45 1103.54L5077.53 1103.57L5077.54 1110.57ZM5117.39 1110.5L5137.31 1110.47L5137.3 1103.47L5117.38 1103.5L5117.39 1110.5ZM5157.24 1110.44L5177.16 1110.41L5177.15 1103.41L5157.23 1103.44L5157.24 1110.44ZM5197.09 1110.38L5217.01 1110.35L5217 1103.35L5197.07 1103.38L5197.09 1110.38ZM5236.93 1110.31L5256.86 1110.28L5256.85 1103.28L5236.92 1103.31L5236.93 1110.31ZM5276.78 1110.25L5296.71 1110.22L5296.7 1103.22L5276.77 1103.25L5276.78 1110.25ZM5316.63 1110.19L5336.56 1110.15L5336.54 1103.15L5316.62 1103.19L5316.63 1110.19ZM5356.48 1110.12L5376.4 1110.09L5376.39 1103.09L5356.47 1103.12L5356.48 1110.12ZM5396.33 1110.06L5416.25 1110.03L5416.24 1103.03L5396.32 1103.06L5396.33 1110.06ZM5436.18 1109.99L5456.1 1109.96L5456.09 1102.96L5436.17 1102.99L5436.18 1109.99ZM5476.03 1109.93L5495.95 1109.9L5495.94 1102.9L5476.01 1102.93L5476.03 1109.93ZM5515.87 1109.87L5535.8 1109.83L5535.79 1102.83L5515.86 1102.87L5515.87 1109.87ZM5555.72 1109.8L5575.65 1109.77L5575.64 1102.77L5555.71 1102.8L5555.72 1109.8ZM5595.57 1109.74L5615.5 1109.71L5615.48 1102.71L5595.56 1102.74L5595.57 1109.74ZM5635.42 1109.68L5655.34 1109.64L5655.33 1102.64L5635.41 1102.68L5635.42 1109.68ZM5675.27 1109.61L5695.19 1109.58L5695.18 1102.58L5675.26 1102.61L5675.27 1109.61ZM5715.12 1109.55L5735.04 1109.52L5735.03 1102.52L5715.11 1102.55L5715.12 1109.55ZM5754.97 1109.48L5774.89 1109.45L5774.88 1102.45L5754.95 1102.48L5754.97 1109.48ZM5794.81 1109.42L5814.74 1109.39L5814.73 1102.39L5794.8 1102.42L5794.81 1109.42ZM5834.66 1109.36L5854.59 1109.32L5854.58 1102.32L5834.65 1102.36L5834.66 1109.36ZM5874.51 1109.29L5894.44 1109.26L5894.42 1102.26L5874.5 1102.29L5874.51 1109.29ZM5914.36 1109.23L5934.28 1109.2L5934.27 1102.2L5914.35 1102.23L5914.36 1109.23ZM5954.21 1109.16L5974.13 1109.13L5974.12 1102.13L5954.2 1102.16L5954.21 1109.16ZM5994.06 1109.1L6013.98 1109.07L6013.97 1102.07L5994.05 1102.1L5994.06 1109.1ZM6033.91 1109.04L6053.83 1109.01L6053.82 1102.01L6033.89 1102.04L6033.91 1109.04ZM6073.75 1108.97L6093.68 1108.94L6093.67 1101.94L6073.74 1101.97L6073.75 1108.97ZM6113.6 1108.91L6133.53 1108.88L6133.52 1101.88L6113.59 1101.91L6113.6 1108.91ZM6153.45 1108.85L6173.38 1108.81L6173.36 1101.81L6153.44 1101.85L6153.45 1108.85ZM6193.3 1108.78L6213.22 1108.75L6213.21 1101.75L6193.29 1101.78L6193.3 1108.78ZM6233.15 1108.72L6253.07 1108.69L6253.06 1101.69L6233.14 1101.72L6233.15 1108.72ZM6273 1108.65L6292.92 1108.62L6292.91 1101.62L6272.99 1101.65L6273 1108.65ZM6312.85 1108.59L6332.77 1108.56L6332.76 1101.56L6312.83 1101.59L6312.85 1108.59ZM6352.69 1108.53L6372.62 1108.49L6372.61 1101.49L6352.68 1101.53L6352.69 1108.53ZM6392.54 1108.46L6412.47 1108.43L6412.46 1101.43L6392.53 1101.46L6392.54 1108.46ZM6432.39 1108.4L6452.32 1108.37L6452.3 1101.37L6432.38 1101.4L6432.39 1108.4ZM6472.24 1108.34L6492.16 1108.3L6492.15 1101.3L6472.23 1101.34L6472.24 1108.34ZM6512.09 1108.27L6532.01 1108.24L6532 1101.24L6512.08 1101.27L6512.09 1108.27ZM6551.94 1108.21L6571.86 1108.18L6571.85 1101.18L6551.93 1101.21L6551.94 1108.21ZM6591.79 1108.14L6611.71 1108.11L6611.7 1101.11L6591.77 1101.14L6591.79 1108.14ZM6631.63 1108.08L6651.56 1108.05L6651.55 1101.05L6631.62 1101.08L6631.63 1108.08ZM6671.48 1108.02L6691.41 1107.98L6691.4 1100.98L6671.47 1101.02L6671.48 1108.02ZM6711.33 1107.95L6731.26 1107.92L6731.24 1100.92L6711.32 1100.95L6711.33 1107.95ZM6751.18 1107.89L6771.1 1107.86L6771.09 1100.86L6751.17 1100.89L6751.18 1107.89ZM6791.03 1107.82L6810.95 1107.79L6810.94 1100.79L6791.02 1100.82L6791.03 1107.82ZM6830.88 1107.76L6850.8 1107.73L6850.79 1100.73L6830.87 1100.76L6830.88 1107.76ZM6870.73 1107.7L6890.65 1107.66L6890.64 1100.66L6870.71 1100.7L6870.73 1107.7ZM6910.57 1107.63L6930.5 1107.6L6930.49 1100.6L6910.56 1100.63L6910.57 1107.63ZM6950.42 1107.57L6970.35 1107.54L6970.34 1100.54L6950.41 1100.57L6950.42 1107.57ZM6990.27 1107.51L7010.2 1107.47L7010.18 1100.47L6990.26 1100.51L6990.27 1107.51ZM7030.12 1107.44L7050.04 1107.41L7050.03 1100.41L7030.11 1100.44L7030.12 1107.44ZM7069.97 1107.38L7089.89 1107.35L7089.88 1100.35L7069.96 1100.38L7069.97 1107.38ZM7109.82 1107.31L7129.74 1107.28L7129.73 1100.28L7109.81 1100.31L7109.82 1107.31ZM7149.67 1107.25L7169.59 1107.22L7169.58 1100.22L7149.65 1100.25L7149.67 1107.25ZM7189.51 1107.19L7209.44 1107.15L7209.43 1100.15L7189.5 1100.19L7189.51 1107.19ZM7229.36 1107.12L7249.29 1107.09L7249.28 1100.09L7229.35 1100.12L7229.36 1107.12ZM7269.21 1107.06L7289.14 1107.03L7289.12 1100.03L7269.2 1100.06L7269.21 1107.06ZM7309.06 1106.99L7328.98 1106.96L7328.97 1099.96L7309.05 1099.99L7309.06 1106.99ZM7348.91 1106.93L7368.83 1106.9L7368.82 1099.9L7348.9 1099.93L7348.91 1106.93ZM7388.76 1106.87L7408.68 1106.84L7408.67 1099.84L7388.75 1099.87L7388.76 1106.87ZM7428.61 1106.8L7448.53 1106.77L7448.52 1099.77L7428.59 1099.8L7428.61 1106.8ZM7468.45 1106.74L7488.38 1106.71L7488.37 1099.71L7468.44 1099.74L7468.45 1106.74ZM7508.3 1106.68L7528.23 1106.64L7528.22 1099.64L7508.29 1099.68L7508.3 1106.68ZM7548.15 1106.61L7568.08 1106.58L7568.06 1099.58L7548.14 1099.61L7548.15 1106.61ZM7588 1106.55L7607.92 1106.52L7607.91 1099.52L7587.99 1099.55L7588 1106.55ZM7627.85 1106.48L7647.77 1106.45L7647.76 1099.45L7627.84 1099.48L7627.85 1106.48ZM7667.7 1106.42L7687.62 1106.39L7687.61 1099.39L7667.69 1099.42L7667.7 1106.42ZM7707.55 1106.36L7727.47 1106.32L7727.46 1099.32L7707.53 1099.36L7707.55 1106.36ZM7747.39 1106.29L7767.32 1106.26L7767.31 1099.26L7747.38 1099.29L7747.39 1106.29ZM7787.24 1106.23L7807.17 1106.2L7807.16 1099.2L7787.23 1099.23L7787.24 1106.23ZM7827.09 1106.17L7847.02 1106.13L7847 1099.13L7827.08 1099.17L7827.09 1106.17ZM7866.94 1106.1L7886.86 1106.07L7886.85 1099.07L7866.93 1099.1L7866.94 1106.1ZM7906.79 1106.04L7926.71 1106.01L7926.7 1099.01L7906.78 1099.04L7906.79 1106.04ZM7946.64 1105.97L7966.56 1105.94L7966.55 1098.94L7946.63 1098.97L7946.64 1105.97ZM7986.49 1105.91L8006.41 1105.88L8006.4 1098.88L7986.47 1098.91L7986.49 1105.91ZM8026.33 1105.85L8046.26 1105.81L8046.25 1098.81L8026.32 1098.85L8026.33 1105.85ZM8066.18 1105.78L8086.11 1105.75L8086.1 1098.75L8066.17 1098.78L8066.18 1105.78ZM8106.03 1105.72L8116 1105.7L8115.99 1098.7L8106.02 1098.72L8106.03 1105.72Z" fill="black"/>
<path d="M8231.99 1128.42C8230.07 1131.3 8227.58 1133.47 8224.5 1134.94C8221.43 1136.42 8218.26 1137.15 8215 1137.15C8211.48 1137.15 8208.28 1136.54 8205.4 1135.33C8202.58 1134.11 8200.15 1132.45 8198.1 1130.34C8196.12 1128.22 8194.55 1125.73 8193.4 1122.85C8192.31 1119.97 8191.77 1116.86 8191.77 1113.54C8191.77 1110.21 8192.31 1107.1 8193.4 1104.22C8194.55 1101.34 8196.12 1098.85 8198.1 1096.74C8200.15 1094.62 8202.58 1092.96 8205.4 1091.74C8208.28 1090.53 8211.48 1089.92 8215 1089.92C8218.26 1089.92 8221.43 1090.69 8224.5 1092.22C8227.58 1093.7 8230.07 1095.9 8231.99 1098.85H8232.18V1063.42H8238.71V1136H8232.18V1128.42H8231.99ZM8198.68 1113.54C8198.68 1116.03 8199.06 1118.4 8199.83 1120.64C8200.6 1122.82 8201.69 1124.74 8203.1 1126.4C8204.57 1128 8206.36 1129.28 8208.47 1130.24C8210.58 1131.14 8212.98 1131.58 8215.67 1131.58C8218.17 1131.58 8220.47 1131.14 8222.58 1130.24C8224.7 1129.28 8226.52 1128 8228.06 1126.4C8229.59 1124.8 8230.78 1122.91 8231.61 1120.74C8232.5 1118.5 8232.95 1116.1 8232.95 1113.54C8232.95 1110.98 8232.5 1108.61 8231.61 1106.43C8230.78 1104.19 8229.59 1102.27 8228.06 1100.67C8226.52 1099.01 8224.7 1097.73 8222.58 1096.83C8220.47 1095.87 8218.17 1095.39 8215.67 1095.39C8212.98 1095.39 8210.58 1095.87 8208.47 1096.83C8206.36 1097.79 8204.57 1099.1 8203.1 1100.77C8201.69 1102.37 8200.6 1104.29 8199.83 1106.53C8199.06 1108.7 8198.68 1111.04 8198.68 1113.54ZM8290.43 1110.08C8290.24 1105.86 8288.86 1102.37 8286.3 1099.62C8283.8 1096.8 8280.22 1095.39 8275.55 1095.39C8273.37 1095.39 8271.36 1095.81 8269.5 1096.64C8267.64 1097.41 8266.01 1098.5 8264.6 1099.9C8263.2 1101.25 8262.08 1102.82 8261.24 1104.61C8260.41 1106.34 8259.93 1108.16 8259.8 1110.08H8290.43ZM8297.05 1112.19C8297.05 1112.64 8297.05 1113.12 8297.05 1113.63C8297.05 1114.14 8297.02 1114.69 8296.96 1115.26H8259.71C8259.77 1117.5 8260.22 1119.62 8261.05 1121.6C8261.88 1123.58 8263.04 1125.31 8264.51 1126.78C8265.98 1128.26 8267.71 1129.44 8269.69 1130.34C8271.68 1131.17 8273.82 1131.58 8276.12 1131.58C8279.52 1131.58 8282.43 1130.82 8284.86 1129.28C8287.36 1127.68 8289.24 1125.86 8290.52 1123.81L8295.42 1127.65C8292.73 1131.04 8289.76 1133.47 8286.49 1134.94C8283.29 1136.42 8279.84 1137.15 8276.12 1137.15C8272.8 1137.15 8269.69 1136.58 8266.81 1135.42C8264 1134.21 8261.56 1132.54 8259.52 1130.43C8257.47 1128.32 8255.84 1125.82 8254.62 1122.94C8253.47 1120.06 8252.89 1116.93 8252.89 1113.54C8252.89 1110.14 8253.47 1107.01 8254.62 1104.13C8255.77 1101.25 8257.37 1098.75 8259.42 1096.64C8261.47 1094.53 8263.87 1092.9 8266.62 1091.74C8269.37 1090.53 8272.35 1089.92 8275.55 1089.92C8279.07 1089.92 8282.17 1090.53 8284.86 1091.74C8287.55 1092.9 8289.79 1094.5 8291.58 1096.54C8293.37 1098.53 8294.72 1100.86 8295.61 1103.55C8296.57 1106.24 8297.05 1109.12 8297.05 1112.19ZM8330.1 1096.54H8319.54V1136H8313.01V1096.54H8303.61V1091.07H8313.01V1078.78C8313.01 1073.66 8314.26 1069.63 8316.76 1066.69C8319.25 1063.74 8323.09 1062.27 8328.28 1062.27C8329.11 1062.27 8330.01 1062.34 8330.97 1062.46C8331.93 1062.53 8332.82 1062.69 8333.65 1062.94L8332.5 1068.7C8331.8 1068.51 8331.09 1068.35 8330.39 1068.22C8329.69 1068.1 8328.89 1068.03 8327.99 1068.03C8326.26 1068.03 8324.82 1068.32 8323.67 1068.9C8322.58 1069.47 8321.72 1070.3 8321.08 1071.39C8320.5 1072.42 8320.09 1073.63 8319.83 1075.04C8319.64 1076.45 8319.54 1077.95 8319.54 1079.55V1091.07H8330.1V1096.54ZM8346.03 1136H8339.5V1091.07H8346.03V1136ZM8347.37 1073.79C8347.37 1075.14 8346.89 1076.26 8345.93 1077.15C8344.97 1077.98 8343.92 1078.4 8342.77 1078.4C8341.61 1078.4 8340.56 1077.98 8339.6 1077.15C8338.64 1076.26 8338.16 1075.14 8338.16 1073.79C8338.16 1072.45 8338.64 1071.36 8339.6 1070.53C8340.56 1069.63 8341.61 1069.18 8342.77 1069.18C8343.92 1069.18 8344.97 1069.63 8345.93 1070.53C8346.89 1071.36 8347.37 1072.45 8347.37 1073.79ZM8369.26 1091.07C8369.39 1092.29 8369.49 1093.63 8369.55 1095.1C8369.61 1096.58 8369.65 1097.79 8369.65 1098.75H8369.84C8371.12 1096.13 8373.2 1094.02 8376.08 1092.42C8378.96 1090.75 8382 1089.92 8385.2 1089.92C8390.89 1089.92 8395.15 1091.62 8397.97 1095.01C8400.85 1098.4 8402.29 1102.88 8402.29 1108.45V1136H8395.76V1111.14C8395.76 1108.77 8395.57 1106.62 8395.18 1104.7C8394.8 1102.78 8394.13 1101.15 8393.17 1099.81C8392.27 1098.4 8391.02 1097.31 8389.42 1096.54C8387.89 1095.78 8385.93 1095.39 8383.57 1095.39C8381.84 1095.39 8380.14 1095.74 8378.48 1096.45C8376.88 1097.15 8375.44 1098.24 8374.16 1099.71C8372.88 1101.12 8371.85 1102.94 8371.09 1105.18C8370.32 1107.36 8369.93 1109.95 8369.93 1112.96V1136H8363.41V1100.96C8363.41 1099.74 8363.37 1098.18 8363.31 1096.26C8363.25 1094.34 8363.15 1092.61 8363.02 1091.07H8369.26ZM8453.46 1110.08C8453.27 1105.86 8451.89 1102.37 8449.33 1099.62C8446.84 1096.8 8443.25 1095.39 8438.58 1095.39C8436.4 1095.39 8434.39 1095.81 8432.53 1096.64C8430.68 1097.41 8429.04 1098.5 8427.64 1099.9C8426.23 1101.25 8425.11 1102.82 8424.28 1104.61C8423.44 1106.34 8422.96 1108.16 8422.84 1110.08H8453.46ZM8460.08 1112.19C8460.08 1112.64 8460.08 1113.12 8460.08 1113.63C8460.08 1114.14 8460.05 1114.69 8459.99 1115.26H8422.74C8422.8 1117.5 8423.25 1119.62 8424.08 1121.6C8424.92 1123.58 8426.07 1125.31 8427.54 1126.78C8429.01 1128.26 8430.74 1129.44 8432.72 1130.34C8434.71 1131.17 8436.85 1131.58 8439.16 1131.58C8442.55 1131.58 8445.46 1130.82 8447.89 1129.28C8450.39 1127.68 8452.28 1125.86 8453.56 1123.81L8458.45 1127.65C8455.76 1131.04 8452.79 1133.47 8449.52 1134.94C8446.32 1136.42 8442.87 1137.15 8439.16 1137.15C8435.83 1137.15 8432.72 1136.58 8429.84 1135.42C8427.03 1134.21 8424.6 1132.54 8422.55 1130.43C8420.5 1128.32 8418.87 1125.82 8417.65 1122.94C8416.5 1120.06 8415.92 1116.93 8415.92 1113.54C8415.92 1110.14 8416.5 1107.01 8417.65 1104.13C8418.8 1101.25 8420.4 1098.75 8422.45 1096.64C8424.5 1094.53 8426.9 1092.9 8429.65 1091.74C8432.4 1090.53 8435.38 1089.92 8438.58 1089.92C8442.1 1089.92 8445.2 1090.53 8447.89 1091.74C8450.58 1092.9 8452.82 1094.5 8454.61 1096.54C8456.4 1098.53 8457.75 1100.86 8458.64 1103.55C8459.6 1106.24 8460.08 1109.12 8460.08 1112.19ZM8511.09 1128.42C8509.17 1131.3 8506.67 1133.47 8503.6 1134.94C8500.53 1136.42 8497.36 1137.15 8494.09 1137.15C8490.57 1137.15 8487.37 1136.54 8484.49 1135.33C8481.68 1134.11 8479.25 1132.45 8477.2 1130.34C8475.21 1128.22 8473.65 1125.73 8472.49 1122.85C8471.41 1119.97 8470.86 1116.86 8470.86 1113.54C8470.86 1110.21 8471.41 1107.1 8472.49 1104.22C8473.65 1101.34 8475.21 1098.85 8477.2 1096.74C8479.25 1094.62 8481.68 1092.96 8484.49 1091.74C8487.37 1090.53 8490.57 1089.92 8494.09 1089.92C8497.36 1089.92 8500.53 1090.69 8503.6 1092.22C8506.67 1093.7 8509.17 1095.9 8511.09 1098.85H8511.28V1063.42H8517.81V1136H8511.28V1128.42H8511.09ZM8477.77 1113.54C8477.77 1116.03 8478.16 1118.4 8478.93 1120.64C8479.69 1122.82 8480.78 1124.74 8482.19 1126.4C8483.66 1128 8485.45 1129.28 8487.57 1130.24C8489.68 1131.14 8492.08 1131.58 8494.77 1131.58C8497.26 1131.58 8499.57 1131.14 8501.68 1130.24C8503.79 1129.28 8505.61 1128 8507.15 1126.4C8508.69 1124.8 8509.87 1122.91 8510.7 1120.74C8511.6 1118.5 8512.05 1116.1 8512.05 1113.54C8512.05 1110.98 8511.6 1108.61 8510.7 1106.43C8509.87 1104.19 8508.69 1102.27 8507.15 1100.67C8505.61 1099.01 8503.79 1097.73 8501.68 1096.83C8499.57 1095.87 8497.26 1095.39 8494.77 1095.39C8492.08 1095.39 8489.68 1095.87 8487.57 1096.83C8485.45 1097.79 8483.66 1099.1 8482.19 1100.77C8480.78 1102.37 8479.69 1104.29 8478.93 1106.53C8478.16 1108.7 8477.77 1111.04 8477.77 1113.54Z" fill="black"/>
<path d="M2565.23 2415H2606.03V2419.64H2594.03V2522.36H2606.03V2527H2565.23V2522.36H2577.23V2419.64H2565.23V2415ZM2617.03 2450.84H2644.39V2465.4C2648.07 2458.04 2654.63 2449.24 2670.31 2449.24C2682.47 2449.24 2689.99 2454.68 2692.55 2467C2696.39 2458.84 2703.91 2449.24 2719.43 2449.24C2732.55 2449.24 2742.31 2456.12 2742.31 2475.96V2522.84H2754.47V2527H2714.95V2522.84H2726.95V2472.12C2726.95 2460.12 2724.23 2455 2715.11 2455C2702.79 2455 2693.35 2465.72 2693.35 2480.44V2522.84H2705.51V2527H2665.99V2522.84H2677.99V2472.92C2677.99 2460.28 2675.27 2455 2666.15 2455C2653.83 2455 2644.39 2465.72 2644.39 2480.44V2522.84H2656.55V2527H2617.03V2522.84H2629.03V2455H2617.03V2450.84ZM2761.09 2450.84H2788.45V2465.4C2792.13 2458.04 2798.69 2449.24 2814.37 2449.24C2826.53 2449.24 2834.05 2454.68 2836.61 2467C2840.45 2458.84 2847.97 2449.24 2863.49 2449.24C2876.61 2449.24 2886.37 2456.12 2886.37 2475.96V2522.84H2898.53V2527H2859.01V2522.84H2871.01V2472.12C2871.01 2460.12 2868.29 2455 2859.17 2455C2846.85 2455 2837.41 2465.72 2837.41 2480.44V2522.84H2849.57V2527H2810.05V2522.84H2822.05V2472.92C2822.05 2460.28 2819.33 2455 2810.21 2455C2797.89 2455 2788.45 2465.72 2788.45 2480.44V2522.84H2800.61V2527H2761.09V2522.84H2773.09V2455H2761.09V2450.84ZM2906.91 2489.72C2906.91 2461.72 2922.75 2449.24 2944.03 2449.24C2964.19 2449.24 2974.27 2461.56 2973.31 2485.72H2923.71V2487.96C2923.71 2511 2928.99 2523.16 2946.43 2523.16C2959.39 2523.16 2966.59 2515 2968.99 2503.64L2973.63 2504.28C2970.91 2517.4 2962.91 2528.6 2942.59 2528.6C2917.95 2528.6 2906.91 2513.08 2906.91 2489.72ZM2923.87 2481.4H2957.31C2958.27 2463.96 2954.75 2453.08 2942.59 2453.08C2930.75 2453.08 2924.99 2463.16 2923.87 2481.4ZM3026.98 2455.32C3017.7 2455.32 3009.7 2469.4 3009.7 2483.8V2522.84H3026.66V2527H2982.34V2522.84H2994.34V2455H2982.34V2450.84H3009.7V2466.2C3012.9 2454.84 3020.26 2449.24 3029.38 2449.24C3039.3 2449.24 3045.54 2455.32 3045.54 2463.8C3045.54 2473.08 3040.58 2476.28 3035.3 2476.28C3029.86 2476.28 3026.34 2472.6 3026.34 2466.2C3026.34 2464.76 3026.5 2463.32 3026.82 2461.88H3031.78C3032.1 2460.92 3032.1 2459.96 3032.1 2459.32C3032.1 2455.96 3029.54 2455.32 3026.98 2455.32ZM3053.01 2528.6V2502.04H3057.17C3058.13 2516.44 3070.29 2523.32 3083.09 2523.32C3096.53 2523.32 3102.13 2518.04 3102.13 2508.92C3102.13 2498.68 3092.21 2496.76 3081.33 2494.84C3068.53 2492.6 3054.45 2490.2 3054.45 2473.4C3054.45 2460.12 3064.85 2449.24 3080.85 2449.24C3087.57 2449.24 3091.57 2450.68 3096.53 2452.92C3097.65 2453.4 3099.89 2454.04 3101.01 2454.04C3102.61 2454.04 3102.93 2452.28 3103.25 2448.92H3106.77V2472.6H3102.77C3099.89 2459.96 3092.05 2453.72 3080.85 2453.72C3070.77 2453.72 3063.57 2458.2 3063.57 2466.04C3063.57 2475.8 3073.33 2477.4 3084.05 2479.32C3096.85 2481.72 3110.93 2484.76 3110.93 2503.64C3110.93 2518.04 3100.85 2528.6 3082.93 2528.6C3073.81 2528.6 3067.09 2526.2 3061.65 2523.16C3060.69 2522.52 3059.89 2522.2 3059.25 2522.2C3057.81 2522.2 3057.33 2523.48 3056.53 2528.6H3053.01ZM3128.66 2424.6C3128.66 2419.48 3132.02 2415.16 3138.26 2415.16C3143.86 2415.16 3148.02 2417.88 3148.02 2424.6C3148.02 2430.36 3144.66 2434.36 3138.42 2434.36C3131.06 2434.36 3128.66 2429.4 3128.66 2424.6ZM3119.86 2450.84H3147.22V2522.84H3159.38V2527H3119.86V2522.84H3131.86V2455H3119.86V2450.84ZM3223.52 2488.44C3223.52 2469.4 3220.32 2453.08 3204.48 2453.08C3188.16 2453.08 3184.96 2468.92 3184.96 2488.12C3184.96 2507.64 3188.32 2524.76 3204.48 2524.76C3220 2524.76 3223.52 2509.72 3223.52 2488.44ZM3168.16 2489.24C3168.16 2463.48 3182.88 2449.24 3204.8 2449.24C3227.2 2449.24 3240.32 2461.56 3240.32 2488.44C3240.32 2513.24 3227.2 2528.6 3204.16 2528.6C3181.44 2528.6 3168.16 2514.2 3168.16 2489.24ZM3249.84 2450.84H3277.2V2465.88C3280.88 2458.04 3289.2 2449.24 3305.36 2449.24C3320.08 2449.24 3329.04 2456.6 3329.04 2475.96V2522.84H3341.2V2527H3301.68V2522.84H3313.68V2473.4C3313.68 2461.56 3310.8 2455 3300.88 2455C3288.4 2455 3277.2 2465.56 3277.2 2480.44V2522.84H3289.36V2527H3249.84V2522.84H3261.84V2455H3249.84V2450.84Z" fill="black"/>
<path d="M584 1457.77L584 1379.21L614.88 1377.61L614.88 1381.45C591.04 1384.65 588.64 1394.09 588.64 1413.93L588.64 1428.33L637.6 1428.33L637.6 1419.21C637.6 1406.25 633.76 1402.89 617.12 1400.33L617.12 1396.97L664.48 1396.97L664.48 1400.65C646.88 1403.53 642.72 1406.09 642.72 1420.81L642.72 1428.33L691.36 1428.33L691.36 1407.69L696 1407.69L696 1457.77L691.36 1457.77L691.36 1445.13L588.64 1445.13L588.64 1457.77L584 1457.77ZM657.44 1317.59C638.4 1317.59 622.08 1320.79 622.08 1336.63C622.08 1352.95 637.92 1356.15 657.12 1356.15C676.64 1356.15 693.76 1352.79 693.76 1336.63C693.76 1321.11 678.72 1317.59 657.44 1317.59ZM658.24 1372.95C632.48 1372.95 618.24 1358.23 618.24 1336.31C618.24 1313.91 630.56 1300.79 657.44 1300.79C682.24 1300.79 697.6 1313.91 697.6 1336.95C697.6 1359.67 683.2 1372.95 658.24 1372.95ZM696 1203.07L696 1229.31L681.12 1230.27C688.96 1233.95 697.6 1242.11 697.6 1257.31C697.6 1272.03 690.24 1281.31 670.88 1281.31L624 1281.31L624 1293.47L619.84 1293.47L619.84 1265.95L672.64 1265.95C684.8 1265.95 691.84 1263.71 691.84 1252.67C691.84 1241.15 679.36 1230.75 667.52 1230.75L624 1230.75L624 1242.91L619.84 1242.91L619.84 1215.39L691.84 1215.39L691.84 1203.07L696 1203.07ZM619.84 1196.27L619.84 1168.91L634.88 1168.91C627.04 1165.23 618.24 1156.91 618.24 1140.75C618.24 1126.03 625.6 1117.07 644.96 1117.07L691.84 1117.07L691.84 1104.91L696 1104.91L696 1144.43L691.84 1144.43L691.84 1132.43L642.4 1132.43C630.56 1132.43 624 1135.31 624 1145.23C624 1157.71 634.56 1168.91 649.44 1168.91L691.84 1168.91L691.84 1156.75L696 1156.75L696 1196.27L691.84 1196.27L691.84 1184.27L624 1184.27L624 1196.27L619.84 1196.27ZM696 1039.1L683.68 1040.38C691.84 1045.5 697.6 1052.86 697.6 1065.5C697.6 1084.38 684.64 1096.54 658.72 1096.54C632.16 1096.54 618.24 1083.42 618.24 1062.78C618.24 1051.58 622.72 1044.7 629.44 1040.38L580.16 1040.38L580.16 1055.42L576 1055.42L576 1025.02L691.84 1025.02L691.84 1012.06L696 1012.06L696 1039.1ZM691.52 1061.98C691.52 1050.78 682.56 1039.9 668.96 1039.9L643.84 1039.9C635.04 1039.9 623.2 1047.58 623.2 1060.06C623.2 1073.82 634.72 1079.74 658.08 1079.74C678.56 1079.74 691.52 1076.06 691.52 1061.98ZM657.76 969.641L657.76 960.041L646.08 960.041C631.52 960.041 622.08 963.401 622.08 976.681C622.08 982.921 623.84 989.481 629.28 989.481C629.92 989.481 630.72 989.321 631.52 989.161L631.52 984.681C633.6 983.881 635.68 983.401 637.76 983.401C643.52 983.401 646.88 987.241 646.88 992.521C646.88 997.801 642.88 1000.84 636.8 1000.84C624.96 1000.84 618.24 988.041 618.24 973.161C618.24 953.961 625.44 944.681 648.48 944.681L680.96 944.681C687.52 944.681 689.76 942.761 689.76 939.241C689.76 935.241 687.52 933.001 674.72 932.041L675.04 928.361C691.04 929.001 697.6 933.801 697.6 944.841C697.6 953.321 693.6 958.441 686.08 959.561C693.44 963.561 697.6 971.881 697.6 981.801C697.6 993.801 692.8 1004.04 679.04 1004.04C662.88 1004.04 657.76 989.961 657.76 969.641ZM691.52 976.201C691.52 967.881 685.6 960.041 675.84 960.041L661.76 960.041L661.76 965.961C661.76 982.441 669.44 987.561 678.88 987.561C686.72 987.561 691.52 984.041 691.52 976.201ZM678.56 916.472L624 916.472L624 928.472L619.84 928.472L619.84 916.472L599.2 916.472L595.04 901.112L619.84 901.112L619.84 878.712L624 878.712L624 901.112L676.64 901.112C686.08 901.112 690.08 898.712 690.08 890.392C690.08 881.592 684 877.752 673.12 876.312L673.6 872.632C686.08 874.072 697.6 878.712 697.6 895.832C697.6 907.832 692.96 916.472 678.56 916.472ZM593.6 856.986C588.48 856.986 584.16 853.626 584.16 847.386C584.16 841.786 586.88 837.626 593.6 837.626C599.36 837.626 603.36 840.986 603.36 847.226C603.36 854.586 598.4 856.986 593.6 856.986ZM619.84 865.786L619.84 838.426L691.84 838.426L691.84 826.266L696 826.266L696 865.786L691.84 865.786L691.84 853.786L624 853.786L624 865.786L619.84 865.786ZM657.44 762.118C638.4 762.118 622.08 765.318 622.08 781.158C622.08 797.478 637.92 800.678 657.12 800.678C676.64 800.678 693.76 797.318 693.76 781.158C693.76 765.638 678.72 762.118 657.44 762.118ZM658.24 817.478C632.48 817.478 618.24 802.758 618.24 780.838C618.24 758.438 630.56 745.318 657.44 745.318C682.24 745.318 697.6 758.438 697.6 781.478C697.6 804.198 683.2 817.478 658.24 817.478ZM619.84 735.801L619.84 708.441L634.88 708.441C627.04 704.761 618.24 696.441 618.24 680.281C618.24 665.561 625.6 656.601 644.96 656.601L691.84 656.601L691.84 644.441L696 644.441L696 683.961L691.84 683.961L691.84 671.961L642.4 671.961C630.56 671.961 624 674.841 624 684.761C624 697.241 634.56 708.441 649.44 708.441L691.84 708.441L691.84 696.281L696 696.281L696 735.801L691.84 735.801L691.84 723.801L624 723.801L624 735.801L619.84 735.801Z" fill="black"/>
<path d="M5282.2 2417.72C5260.6 2417.72 5248.28 2433.72 5248.28 2470.68C5248.28 2504.12 5259.8 2524.12 5282.84 2524.12C5300.44 2524.12 5311.16 2512.92 5315.96 2492.76H5319.48L5318.36 2526.84H5315.96C5314.84 2524.76 5314.2 2523.64 5311.8 2523.64C5306.84 2523.64 5295.48 2528.6 5281.56 2528.6C5250.36 2528.6 5229.88 2511.64 5229.88 2470.84C5229.88 2432.92 5252.76 2413.24 5282.2 2413.24C5294.68 2413.24 5305.4 2418.2 5310.36 2418.2C5312.76 2418.2 5313.4 2417.08 5314.52 2415H5316.92L5318.04 2448.12H5314.52C5309.72 2427.96 5299.8 2417.72 5282.2 2417.72ZM5375.87 2455.32C5366.59 2455.32 5358.59 2469.4 5358.59 2483.8V2522.84H5375.55V2527H5331.23V2522.84H5343.23V2455H5331.23V2450.84H5358.59V2466.2C5361.79 2454.84 5369.15 2449.24 5378.27 2449.24C5388.19 2449.24 5394.43 2455.32 5394.43 2463.8C5394.43 2473.08 5389.47 2476.28 5384.19 2476.28C5378.75 2476.28 5375.23 2472.6 5375.23 2466.2C5375.23 2464.76 5375.39 2463.32 5375.71 2461.88H5380.67C5380.99 2460.92 5380.99 2459.96 5380.99 2459.32C5380.99 2455.96 5378.43 2455.32 5375.87 2455.32ZM5400.8 2489.72C5400.8 2461.72 5416.64 2449.24 5437.92 2449.24C5458.08 2449.24 5468.16 2461.56 5467.2 2485.72H5417.6V2487.96C5417.6 2511 5422.88 2523.16 5440.32 2523.16C5453.28 2523.16 5460.48 2515 5462.88 2503.64L5467.52 2504.28C5464.8 2517.4 5456.8 2528.6 5436.48 2528.6C5411.84 2528.6 5400.8 2513.08 5400.8 2489.72ZM5417.76 2481.4H5451.2C5452.16 2463.96 5448.64 2453.08 5436.48 2453.08C5424.64 2453.08 5418.88 2463.16 5417.76 2481.4ZM5512.39 2488.76H5521.99V2477.08C5521.99 2462.52 5518.63 2453.08 5505.35 2453.08C5499.11 2453.08 5492.55 2454.84 5492.55 2460.28C5492.55 2460.92 5492.71 2461.72 5492.87 2462.52H5497.35C5498.15 2464.6 5498.63 2466.68 5498.63 2468.76C5498.63 2474.52 5494.79 2477.88 5489.51 2477.88C5484.23 2477.88 5481.19 2473.88 5481.19 2467.8C5481.19 2455.96 5493.99 2449.24 5508.87 2449.24C5528.07 2449.24 5537.35 2456.44 5537.35 2479.48V2511.96C5537.35 2518.52 5539.27 2520.76 5542.79 2520.76C5546.79 2520.76 5549.03 2518.52 5549.99 2505.72L5553.67 2506.04C5553.03 2522.04 5548.23 2528.6 5537.19 2528.6C5528.71 2528.6 5523.59 2524.6 5522.47 2517.08C5518.47 2524.44 5510.15 2528.6 5500.23 2528.6C5488.23 2528.6 5477.99 2523.8 5477.99 2510.04C5477.99 2493.88 5492.07 2488.76 5512.39 2488.76ZM5505.83 2522.52C5514.15 2522.52 5521.99 2516.6 5521.99 2506.84V2492.76H5516.07C5499.59 2492.76 5494.47 2500.44 5494.47 2509.88C5494.47 2517.72 5497.99 2522.52 5505.83 2522.52ZM5565.56 2509.56V2455H5553.56V2450.84H5565.56V2430.2L5580.92 2426.04V2450.84H5603.32V2455H5580.92V2507.64C5580.92 2517.08 5583.32 2521.08 5591.64 2521.08C5600.44 2521.08 5604.28 2515 5605.72 2504.12L5609.4 2504.6C5607.96 2517.08 5603.32 2528.6 5586.2 2528.6C5574.2 2528.6 5565.56 2523.96 5565.56 2509.56ZM5625.05 2424.6C5625.05 2419.48 5628.41 2415.16 5634.65 2415.16C5640.25 2415.16 5644.41 2417.88 5644.41 2424.6C5644.41 2430.36 5641.05 2434.36 5634.81 2434.36C5627.45 2434.36 5625.05 2429.4 5625.05 2424.6ZM5616.25 2450.84H5643.61V2522.84H5655.77V2527H5616.25V2522.84H5628.25V2455H5616.25V2450.84ZM5654.89 2455V2450.84H5692.33V2455H5679.21L5699.85 2508.44L5719.85 2455H5707.21V2450.84H5734.25V2455H5726.25L5697.29 2528.6H5693.13L5662.09 2455H5654.89ZM5736.12 2489.72C5736.12 2461.72 5751.96 2449.24 5773.24 2449.24C5793.4 2449.24 5803.48 2461.56 5802.52 2485.72H5752.92V2487.96C5752.92 2511 5758.2 2523.16 5775.64 2523.16C5788.6 2523.16 5795.8 2515 5798.2 2503.64L5802.84 2504.28C5800.12 2517.4 5792.12 2528.6 5771.8 2528.6C5747.16 2528.6 5736.12 2513.08 5736.12 2489.72ZM5753.08 2481.4H5786.52C5787.48 2463.96 5783.96 2453.08 5771.8 2453.08C5759.96 2453.08 5754.2 2463.16 5753.08 2481.4ZM5946.77 2469.08C5946.77 2514.2 5917.81 2527 5880.21 2527H5845.17V2522.36H5858.93V2419.64H5845.17V2415H5884.69C5923.57 2415 5946.77 2429.24 5946.77 2469.08ZM5875.73 2522.36H5882.77C5914.45 2522.36 5928.21 2503.96 5928.21 2470.04C5928.21 2429.24 5912.69 2419.64 5879.89 2419.64H5875.73V2522.36ZM5967.23 2424.6C5967.23 2419.48 5970.59 2415.16 5976.83 2415.16C5982.43 2415.16 5986.59 2417.88 5986.59 2424.6C5986.59 2430.36 5983.23 2434.36 5976.99 2434.36C5969.63 2434.36 5967.23 2429.4 5967.23 2424.6ZM5958.43 2450.84H5985.79V2522.84H5997.95V2527H5958.43V2522.84H5970.43V2455H5958.43V2450.84ZM6049.62 2455.32C6040.34 2455.32 6032.34 2469.4 6032.34 2483.8V2522.84H6049.3V2527H6004.98V2522.84H6016.98V2455H6004.98V2450.84H6032.34V2466.2C6035.54 2454.84 6042.9 2449.24 6052.02 2449.24C6061.94 2449.24 6068.18 2455.32 6068.18 2463.8C6068.18 2473.08 6063.22 2476.28 6057.94 2476.28C6052.5 2476.28 6048.98 2472.6 6048.98 2466.2C6048.98 2464.76 6049.14 2463.32 6049.46 2461.88H6054.42C6054.74 2460.92 6054.74 2459.96 6054.74 2459.32C6054.74 2455.96 6052.18 2455.32 6049.62 2455.32ZM6074.55 2489.72C6074.55 2461.72 6090.39 2449.24 6111.67 2449.24C6131.83 2449.24 6141.91 2461.56 6140.95 2485.72H6091.35V2487.96C6091.35 2511 6096.63 2523.16 6114.07 2523.16C6127.03 2523.16 6134.23 2515 6136.63 2503.64L6141.27 2504.28C6138.55 2517.4 6130.55 2528.6 6110.23 2528.6C6085.59 2528.6 6074.55 2513.08 6074.55 2489.72ZM6091.51 2481.4H6124.95C6125.91 2463.96 6122.39 2453.08 6110.23 2453.08C6098.39 2453.08 6092.63 2463.16 6091.51 2481.4ZM6190.94 2453.08C6175.42 2453.08 6168.54 2463.8 6168.54 2487.48C6168.54 2511.8 6175.26 2523 6190.3 2523C6205.98 2523 6210.94 2511.32 6212.54 2501.88L6217.18 2502.68C6215.42 2512.28 6210.46 2528.6 6186.62 2528.6C6164.38 2528.6 6151.74 2514.84 6151.74 2490.36C6151.74 2462.84 6167.26 2449.24 6189.98 2449.24C6207.1 2449.24 6216.7 2457.08 6216.7 2469.56C6216.7 2477.72 6212.54 2481.24 6206.94 2481.24C6201.5 2481.24 6197.66 2477.72 6197.66 2471.48C6197.66 2469.88 6197.82 2467.8 6198.46 2465.56H6202.78C6203.1 2464.28 6203.26 2463 6203.26 2461.88C6203.26 2456.28 6199.42 2453.08 6190.94 2453.08ZM6235.72 2509.56V2455H6223.72V2450.84H6235.72V2430.2L6251.08 2426.04V2450.84H6273.48V2455H6251.08V2507.64C6251.08 2517.08 6253.48 2521.08 6261.8 2521.08C6270.6 2521.08 6274.44 2515 6275.88 2504.12L6279.56 2504.6C6278.12 2517.08 6273.48 2528.6 6256.36 2528.6C6244.36 2528.6 6235.72 2523.96 6235.72 2509.56ZM6295.2 2424.6C6295.2 2419.48 6298.56 2415.16 6304.8 2415.16C6310.4 2415.16 6314.56 2417.88 6314.56 2424.6C6314.56 2430.36 6311.2 2434.36 6304.96 2434.36C6297.6 2434.36 6295.2 2429.4 6295.2 2424.6ZM6286.4 2450.84H6313.76V2522.84H6325.92V2527H6286.4V2522.84H6298.4V2455H6286.4V2450.84ZM6390.07 2488.44C6390.07 2469.4 6386.87 2453.08 6371.03 2453.08C6354.71 2453.08 6351.51 2468.92 6351.51 2488.12C6351.51 2507.64 6354.87 2524.76 6371.03 2524.76C6386.55 2524.76 6390.07 2509.72 6390.07 2488.44ZM6334.71 2489.24C6334.71 2463.48 6349.43 2449.24 6371.35 2449.24C6393.75 2449.24 6406.87 2461.56 6406.87 2488.44C6406.87 2513.24 6393.75 2528.6 6370.71 2528.6C6347.99 2528.6 6334.71 2514.2 6334.71 2489.24ZM6416.39 2450.84H6443.75V2465.88C6447.43 2458.04 6455.75 2449.24 6471.91 2449.24C6486.63 2449.24 6495.59 2456.6 6495.59 2475.96V2522.84H6507.75V2527H6468.23V2522.84H6480.23V2473.4C6480.23 2461.56 6477.35 2455 6467.43 2455C6454.95 2455 6443.75 2465.56 6443.75 2480.44V2522.84H6455.91V2527H6416.39V2522.84H6428.39V2455H6416.39V2450.84Z" fill="black"/>
<path d="M7871.73 2415H7950.29L7951.89 2445.88H7948.05C7944.85 2422.04 7935.41 2419.64 7915.57 2419.64H7901.17V2468.6H7910.29C7923.25 2468.6 7926.61 2464.76 7929.17 2448.12H7932.53V2495.48H7928.85C7925.97 2477.88 7923.41 2473.72 7908.69 2473.72H7901.17V2522.36H7921.81V2527H7871.73V2522.36H7884.37V2419.64H7871.73V2415ZM7956.55 2489.72C7956.55 2461.72 7972.39 2449.24 7993.67 2449.24C8013.83 2449.24 8023.91 2461.56 8022.95 2485.72H7973.35V2487.96C7973.35 2511 7978.63 2523.16 7996.07 2523.16C8009.03 2523.16 8016.23 2515 8018.63 2503.64L8023.27 2504.28C8020.55 2517.4 8012.55 2528.6 7992.23 2528.6C7967.59 2528.6 7956.55 2513.08 7956.55 2489.72ZM7973.51 2481.4H8006.95C8007.91 2463.96 8004.39 2453.08 7992.23 2453.08C7980.39 2453.08 7974.63 2463.16 7973.51 2481.4ZM8068.14 2488.76H8077.74V2477.08C8077.74 2462.52 8074.38 2453.08 8061.1 2453.08C8054.86 2453.08 8048.3 2454.84 8048.3 2460.28C8048.3 2460.92 8048.46 2461.72 8048.62 2462.52H8053.1C8053.9 2464.6 8054.38 2466.68 8054.38 2468.76C8054.38 2474.52 8050.54 2477.88 8045.26 2477.88C8039.98 2477.88 8036.94 2473.88 8036.94 2467.8C8036.94 2455.96 8049.74 2449.24 8064.62 2449.24C8083.82 2449.24 8093.1 2456.44 8093.1 2479.48V2511.96C8093.1 2518.52 8095.02 2520.76 8098.54 2520.76C8102.54 2520.76 8104.78 2518.52 8105.74 2505.72L8109.42 2506.04C8108.78 2522.04 8103.98 2528.6 8092.94 2528.6C8084.46 2528.6 8079.34 2524.6 8078.22 2517.08C8074.22 2524.44 8065.9 2528.6 8055.98 2528.6C8043.98 2528.6 8033.74 2523.8 8033.74 2510.04C8033.74 2493.88 8047.82 2488.76 8068.14 2488.76ZM8061.58 2522.52C8069.9 2522.52 8077.74 2516.6 8077.74 2506.84V2492.76H8071.82C8055.34 2492.76 8050.22 2500.44 8050.22 2509.88C8050.22 2517.72 8053.74 2522.52 8061.58 2522.52ZM8121.31 2509.56V2455H8109.31V2450.84H8121.31V2430.2L8136.67 2426.04V2450.84H8159.07V2455H8136.67V2507.64C8136.67 2517.08 8139.07 2521.08 8147.39 2521.08C8156.19 2521.08 8160.03 2515 8161.47 2504.12L8165.15 2504.6C8163.71 2517.08 8159.07 2528.6 8141.95 2528.6C8129.95 2528.6 8121.31 2523.96 8121.31 2509.56ZM8257.83 2527H8231.59L8230.63 2512.12C8226.95 2519.96 8218.79 2528.6 8203.59 2528.6C8188.87 2528.6 8179.59 2521.24 8179.59 2501.88V2455H8167.43V2450.84H8194.95V2503.64C8194.95 2515.8 8197.19 2522.84 8208.23 2522.84C8219.75 2522.84 8230.15 2510.36 8230.15 2498.52V2455H8217.99V2450.84H8245.51V2522.84H8257.83V2527ZM8309.28 2455.32C8300 2455.32 8292 2469.4 8292 2483.8V2522.84H8308.96V2527H8264.64V2522.84H8276.64V2455H8264.64V2450.84H8292V2466.2C8295.2 2454.84 8302.56 2449.24 8311.68 2449.24C8321.6 2449.24 8327.84 2455.32 8327.84 2463.8C8327.84 2473.08 8322.88 2476.28 8317.6 2476.28C8312.16 2476.28 8308.64 2472.6 8308.64 2466.2C8308.64 2464.76 8308.8 2463.32 8309.12 2461.88H8314.08C8314.4 2460.92 8314.4 2459.96 8314.4 2459.32C8314.4 2455.96 8311.84 2455.32 8309.28 2455.32ZM8334.21 2489.72C8334.21 2461.72 8350.05 2449.24 8371.33 2449.24C8391.49 2449.24 8401.57 2461.56 8400.61 2485.72H8351.01V2487.96C8351.01 2511 8356.29 2523.16 8373.73 2523.16C8386.69 2523.16 8393.89 2515 8396.29 2503.64L8400.93 2504.28C8398.21 2517.4 8390.21 2528.6 8369.89 2528.6C8345.25 2528.6 8334.21 2513.08 8334.21 2489.72ZM8351.17 2481.4H8384.61C8385.57 2463.96 8382.05 2453.08 8369.89 2453.08C8358.05 2453.08 8352.29 2463.16 8351.17 2481.4ZM8544.87 2469.08C8544.87 2514.2 8515.91 2527 8478.31 2527H8443.27V2522.36H8457.03V2419.64H8443.27V2415H8482.79C8521.67 2415 8544.87 2429.24 8544.87 2469.08ZM8473.83 2522.36H8480.87C8512.55 2522.36 8526.31 2503.96 8526.31 2470.04C8526.31 2429.24 8510.79 2419.64 8477.99 2419.64H8473.83V2522.36ZM8557.65 2489.72C8557.65 2461.72 8573.49 2449.24 8594.77 2449.24C8614.93 2449.24 8625.01 2461.56 8624.05 2485.72H8574.45V2487.96C8574.45 2511 8579.73 2523.16 8597.17 2523.16C8610.13 2523.16 8617.33 2515 8619.73 2503.64L8624.37 2504.28C8621.65 2517.4 8613.65 2528.6 8593.33 2528.6C8568.69 2528.6 8557.65 2513.08 8557.65 2489.72ZM8574.61 2481.4H8608.05C8609.01 2463.96 8605.49 2453.08 8593.33 2453.08C8581.49 2453.08 8575.73 2463.16 8574.61 2481.4ZM8635.15 2528.6V2502.04H8639.31C8640.27 2516.44 8652.43 2523.32 8665.23 2523.32C8678.67 2523.32 8684.27 2518.04 8684.27 2508.92C8684.27 2498.68 8674.35 2496.76 8663.47 2494.84C8650.67 2492.6 8636.59 2490.2 8636.59 2473.4C8636.59 2460.12 8646.99 2449.24 8662.99 2449.24C8669.71 2449.24 8673.71 2450.68 8678.67 2452.92C8679.79 2453.4 8682.03 2454.04 8683.15 2454.04C8684.75 2454.04 8685.07 2452.28 8685.39 2448.92H8688.91V2472.6H8684.91C8682.03 2459.96 8674.19 2453.72 8662.99 2453.72C8652.91 2453.72 8645.71 2458.2 8645.71 2466.04C8645.71 2475.8 8655.47 2477.4 8666.19 2479.32C8678.99 2481.72 8693.07 2484.76 8693.07 2503.64C8693.07 2518.04 8682.99 2528.6 8665.07 2528.6C8655.95 2528.6 8649.23 2526.2 8643.79 2523.16C8642.83 2522.52 8642.03 2522.2 8641.39 2522.2C8639.95 2522.2 8639.47 2523.48 8638.67 2528.6H8635.15ZM8710.8 2424.6C8710.8 2419.48 8714.16 2415.16 8720.4 2415.16C8726 2415.16 8730.16 2417.88 8730.16 2424.6C8730.16 2430.36 8726.8 2434.36 8720.56 2434.36C8713.2 2434.36 8710.8 2429.4 8710.8 2424.6ZM8702 2450.84H8729.36V2522.84H8741.52V2527H8702V2522.84H8714V2455H8702V2450.84ZM8811.9 2445.56L8815.26 2441.72C8814.94 2439.48 8813.66 2438.2 8811.26 2438.2C8808.22 2438.2 8803.9 2442.2 8803.9 2451.48C8803.9 2453.08 8804.06 2455 8804.38 2457.08C8808.7 2461.72 8811.42 2467 8811.42 2475.32C8811.42 2491.8 8800.54 2502.52 8783.1 2502.52C8779.1 2502.52 8775.1 2502.04 8771.9 2501.4C8765.98 2505.4 8761.98 2509.08 8761.98 2511C8761.98 2512.76 8763.26 2513.56 8767.74 2513.56H8789.66C8808.06 2513.56 8821.66 2517.4 8821.66 2537.08C8821.66 2554.36 8810.78 2567 8778.14 2567C8756.06 2567 8745.02 2560.12 8745.02 2548.28C8745.02 2539.64 8751.42 2536.6 8756.86 2535.48L8761.02 2538.84C8759.74 2541.4 8759.26 2544.6 8759.26 2546.84C8759.26 2556.12 8765.82 2562.84 8782.78 2562.84C8803.26 2562.84 8813.66 2554.36 8813.66 2542.2C8813.66 2531.96 8806.46 2528.28 8790.46 2528.28H8769.82C8758.46 2528.28 8753.66 2523.8 8753.66 2517.4C8753.66 2511.96 8758.14 2507.32 8767.42 2500.12C8757.18 2496.12 8753.34 2487.48 8753.34 2476.44C8753.34 2462.52 8762.62 2449.24 8783.9 2449.24C8790.3 2449.24 8795.9 2450.84 8800.7 2454.2C8800.54 2453.08 8800.54 2452.12 8800.54 2451C8800.54 2440.92 8806.14 2432.76 8816.22 2432.76C8822.3 2432.76 8826.78 2436.44 8826.78 2442.36C8826.78 2446.52 8823.74 2449.88 8819.1 2449.88C8815.42 2449.88 8812.7 2447.48 8811.9 2445.56ZM8768.86 2476.12C8768.86 2493.08 8773.98 2498.36 8782.94 2498.36C8790.78 2498.36 8796.22 2493.4 8796.22 2475.96C8796.22 2459.32 8791.74 2453.08 8782.78 2453.08C8774.46 2453.08 8768.86 2458.36 8768.86 2476.12ZM8828.7 2450.84H8856.06V2465.88C8859.74 2458.04 8868.06 2449.24 8884.22 2449.24C8898.94 2449.24 8907.9 2456.6 8907.9 2475.96V2522.84H8920.06V2527H8880.54V2522.84H8892.54V2473.4C8892.54 2461.56 8889.66 2455 8879.74 2455C8867.26 2455 8856.06 2465.56 8856.06 2480.44V2522.84H8868.22V2527H8828.7V2522.84H8840.7V2455H8828.7V2450.84Z" fill="black"/>
</svg>
